<?xml version="1.0" encoding="UTF-8" standalone="no"?>
<!DOCTYPE svg PUBLIC "-//W3C//DTD SVG 1.1//EN"
 "http://www.w3.org/Graphics/SVG/1.1/DTD/svg11.dtd">
<!-- Generated by graphviz version 9.0.0 (20230911.1827)
 -->
<!-- Title: G Pages: 1 -->
<svg width="1258pt" height="548pt"
 viewBox="0.00 0.00 1258.18 548.00" xmlns="http://www.w3.org/2000/svg" xmlns:xlink="http://www.w3.org/1999/xlink">
<g id="graph0" class="graph" transform="scale(1 1) rotate(0) translate(4 544)">
<title>G</title>
<polygon fill="white" stroke="none" points="-4,4 -4,-544 1254.18,-544 1254.18,4 -4,4"/>
<!-- value: start, id: 0, ot:  -->
<g id="node1" class="node">
<title>value: start, id: 0, ot: </title>
<polygon fill="aquamarine" stroke="black" points="230.46,-504.05 236.42,-504.15 242.31,-504.3 248.12,-504.49 253.82,-504.74 259.39,-505.03 264.8,-505.36 270.04,-505.75 275.08,-506.18 279.91,-506.65 284.51,-507.16 288.86,-507.71 292.95,-508.31 296.76,-508.94 300.29,-509.61 303.52,-510.31 306.45,-511.04 309.07,-511.8 311.38,-512.59 313.37,-513.41 315.04,-514.25 316.39,-515.11 317.42,-515.99 318.14,-516.89 318.56,-517.8 318.67,-518.72 318.48,-519.65 318.01,-520.59 317.27,-521.53 316.25,-522.47 314.98,-523.41 313.47,-524.35 311.73,-525.28 309.76,-526.2 307.59,-527.11 305.23,-528.01 302.69,-528.89 299.98,-529.75 297.12,-530.59 294.11,-531.41 290.98,-532.2 287.74,-532.96 284.39,-533.69 280.94,-534.39 277.41,-535.06 273.81,-535.69 270.14,-536.29 266.42,-536.84 262.64,-537.35 258.83,-537.82 254.98,-538.25 251.1,-538.64 247.19,-538.97 243.27,-539.26 239.32,-539.51 235.37,-539.7 231.4,-539.85 227.43,-539.95 223.46,-540 219.48,-540 215.51,-539.95 211.53,-539.85 207.57,-539.7 203.61,-539.51 199.67,-539.26 195.75,-538.97 191.84,-538.64 187.96,-538.25 184.11,-537.82 180.29,-537.35 176.52,-536.84 172.8,-536.29 169.13,-535.69 165.53,-535.06 162,-534.39 158.55,-533.69 155.2,-532.96 151.95,-532.2 148.82,-531.41 145.82,-530.59 142.96,-529.75 140.25,-528.89 137.71,-528.01 135.35,-527.11 133.18,-526.2 131.21,-525.28 129.47,-524.35 127.95,-523.41 126.69,-522.47 125.67,-521.53 124.92,-520.59 124.45,-519.65 124.27,-518.72 124.38,-517.8 124.79,-516.89 125.52,-515.99 126.55,-515.11 127.9,-514.25 129.57,-513.41 131.56,-512.59 133.87,-511.8 136.49,-511.04 139.42,-510.31 142.65,-509.61 146.18,-508.94 149.99,-508.31 154.08,-507.71 158.43,-507.16 163.03,-506.65 167.86,-506.18 172.9,-505.75 178.14,-505.36 183.55,-505.03 189.12,-504.74 194.82,-504.49 200.63,-504.3 206.52,-504.15 212.47,-504.05 218.47,-504 224.47,-504 230.46,-504.05"/>
<text text-anchor="middle" x="221.47" y="-516.95" font-family="Times,serif" font-size="14.00">value: start, id: 0, ot: </text>
</g>
<!-- value: while, id: 1, ot: a READ &#160;BIN_GREATER 10 -->
<g id="node2" class="node">
<title>value: while, id: 1, ot: a READ &#160;BIN_GREATER 10</title>
<polygon fill="aquamarine" stroke="black" points="241.81,-432.05 255.28,-432.15 268.61,-432.3 281.75,-432.49 294.63,-432.74 307.22,-433.03 319.47,-433.36 331.31,-433.75 342.72,-434.18 353.64,-434.65 364.04,-435.16 373.88,-435.71 383.13,-436.31 391.75,-436.94 399.73,-437.61 407.05,-438.31 413.67,-439.04 419.6,-439.8 424.81,-440.59 429.31,-441.41 433.09,-442.25 436.14,-443.11 438.48,-443.99 440.12,-444.89 441.05,-445.8 441.3,-446.72 440.89,-447.65 439.82,-448.59 438.13,-449.53 435.84,-450.47 432.97,-451.41 429.55,-452.35 425.6,-453.28 421.16,-454.2 416.25,-455.11 410.91,-456.01 405.16,-456.89 399.03,-457.75 392.56,-458.59 385.77,-459.41 378.69,-460.2 371.35,-460.96 363.77,-461.69 355.97,-462.39 347.99,-463.06 339.84,-463.69 331.55,-464.29 323.13,-464.84 314.59,-465.35 305.97,-465.82 297.26,-466.25 288.48,-466.64 279.65,-466.97 270.77,-467.26 261.85,-467.51 252.91,-467.7 243.94,-467.85 234.96,-467.95 225.97,-468 216.97,-468 207.98,-467.95 199,-467.85 190.03,-467.7 181.09,-467.51 172.17,-467.26 163.29,-466.97 154.46,-466.64 145.68,-466.25 136.97,-465.82 128.34,-465.35 119.81,-464.84 111.39,-464.29 103.09,-463.69 94.95,-463.06 86.96,-462.39 79.17,-461.69 71.59,-460.96 64.25,-460.2 57.17,-459.41 50.38,-458.59 43.91,-457.75 37.78,-456.89 32.03,-456.01 26.69,-455.11 21.78,-454.2 17.34,-453.28 13.39,-452.35 9.97,-451.41 7.1,-450.47 4.8,-449.53 3.11,-448.59 2.05,-447.65 1.64,-446.72 1.89,-445.8 2.82,-444.89 4.45,-443.99 6.8,-443.11 9.85,-442.25 13.63,-441.41 18.12,-440.59 23.34,-439.8 29.26,-439.04 35.89,-438.31 43.2,-437.61 51.19,-436.94 59.81,-436.31 69.06,-435.71 78.9,-435.16 89.3,-434.65 100.22,-434.18 111.63,-433.75 123.47,-433.36 135.71,-433.03 148.3,-432.74 161.19,-432.49 174.33,-432.3 187.66,-432.15 201.13,-432.05 214.68,-432 228.26,-432 241.81,-432.05"/>
<text text-anchor="middle" x="221.47" y="-444.95" font-family="Times,serif" font-size="14.00">value: while, id: 1, ot: a READ &#160;BIN_GREATER 10</text>
</g>
<!-- value: start, id: 0, ot: &#45;&gt;value: while, id: 1, ot: a READ &#160;BIN_GREATER 10 -->
<g id="edge1" class="edge">
<title>value: start, id: 0, ot: &#45;&gt;value: while, id: 1, ot: a READ &#160;BIN_GREATER 10</title>
<path fill="none" stroke="black" d="M221.47,-503.7C221.47,-496.41 221.47,-487.73 221.47,-479.54"/>
<polygon fill="black" stroke="black" points="224.97,-479.62 221.47,-469.62 217.97,-479.62 224.97,-479.62"/>
</g>
<!-- value: assigment, id: 2, ot: a WRITE 2 BIN_PLUS 3 -->
<g id="node3" class="node">
<title>value: assigment, id: 2, ot: a WRITE 2 BIN_PLUS 3</title>
<polygon fill="aquamarine" stroke="black" points="241.96,-360.05 255.53,-360.15 268.96,-360.3 282.19,-360.49 295.18,-360.74 307.86,-361.03 320.19,-361.36 332.13,-361.75 343.62,-362.18 354.62,-362.65 365.1,-363.16 375.01,-363.71 384.33,-364.31 393.02,-364.94 401.06,-365.61 408.43,-366.31 415.1,-367.04 421.07,-367.8 426.33,-368.59 430.86,-369.41 434.66,-370.25 437.74,-371.11 440.1,-371.99 441.74,-372.89 442.69,-373.8 442.94,-374.72 442.52,-375.65 441.45,-376.59 439.75,-377.53 437.44,-378.47 434.54,-379.41 431.09,-380.35 427.12,-381.28 422.64,-382.2 417.7,-383.11 412.32,-384.01 406.52,-384.89 400.35,-385.75 393.83,-386.59 386.99,-387.41 379.86,-388.2 372.46,-388.96 364.83,-389.69 356.97,-390.39 348.93,-391.06 340.73,-391.69 332.37,-392.29 323.88,-392.84 315.29,-393.35 306.59,-393.82 297.82,-394.25 288.98,-394.64 280.08,-394.97 271.13,-395.26 262.15,-395.51 253.14,-395.7 244.11,-395.85 235.06,-395.95 226,-396 216.94,-396 207.88,-395.95 198.83,-395.85 189.8,-395.7 180.79,-395.51 171.8,-395.26 162.86,-394.97 153.96,-394.64 145.12,-394.25 136.34,-393.82 127.65,-393.35 119.06,-392.84 110.57,-392.29 102.21,-391.69 94,-391.06 85.96,-390.39 78.11,-389.69 70.48,-388.96 63.08,-388.2 55.95,-387.41 49.11,-386.59 42.59,-385.75 36.41,-384.89 30.62,-384.01 25.24,-383.11 20.3,-382.2 15.82,-381.28 11.84,-380.35 8.4,-379.41 5.5,-378.47 3.19,-377.53 1.49,-376.59 0.42,-375.65 0,-374.72 0.25,-373.8 1.2,-372.89 2.84,-371.99 5.2,-371.11 8.28,-370.25 12.08,-369.41 16.61,-368.59 21.87,-367.8 27.84,-367.04 34.51,-366.31 41.88,-365.61 49.92,-364.94 58.61,-364.31 67.93,-363.71 77.84,-363.16 88.32,-362.65 99.32,-362.18 110.81,-361.75 122.74,-361.36 135.08,-361.03 147.76,-360.74 160.74,-360.49 173.98,-360.3 187.41,-360.15 200.98,-360.05 214.63,-360 228.31,-360 241.96,-360.05"/>
<text text-anchor="middle" x="221.47" y="-372.95" font-family="Times,serif" font-size="14.00">value: assigment, id: 2, ot: a WRITE 2 BIN_PLUS 3</text>
</g>
<!-- value: while, id: 1, ot: a READ &#160;BIN_GREATER 10&#45;&gt;value: assigment, id: 2, ot: a WRITE 2 BIN_PLUS 3 -->
<g id="edge2" class="edge">
<title>value: while, id: 1, ot: a READ &#160;BIN_GREATER 10&#45;&gt;value: assigment, id: 2, ot: a WRITE 2 BIN_PLUS 3</title>
<path fill="none" stroke="black" d="M215.55,-431.7C214.8,-424.41 214.56,-415.73 214.82,-407.54"/>
<polygon fill="black" stroke="black" points="218.31,-407.82 215.47,-397.61 211.33,-407.36 218.31,-407.82"/>
</g>
<!-- value: assigment, id: 4, ot: a WRITE a READ &#160;BIN_PLUS 6 -->
<g id="node4" class="node">
<title>value: assigment, id: 4, ot: a WRITE a READ &#160;BIN_PLUS 6</title>
<polygon fill="aquamarine" stroke="black" points="737.89,-360.05 753.39,-360.15 768.74,-360.3 783.86,-360.49 798.7,-360.74 813.19,-361.03 827.29,-361.36 840.92,-361.75 854.05,-362.18 866.63,-362.65 878.6,-363.16 889.93,-363.71 900.57,-364.31 910.51,-364.94 919.7,-365.61 928.11,-366.31 935.74,-367.04 942.56,-367.8 948.57,-368.59 953.74,-369.41 958.09,-370.25 961.61,-371.11 964.31,-371.99 966.18,-372.89 967.26,-373.8 967.55,-374.72 967.07,-375.65 965.85,-376.59 963.9,-377.53 961.26,-378.47 957.96,-379.41 954.02,-380.35 949.47,-381.28 944.36,-382.2 938.71,-383.11 932.56,-384.01 925.94,-384.89 918.89,-385.75 911.44,-386.59 903.62,-387.41 895.47,-388.2 887.01,-388.96 878.29,-389.69 869.32,-390.39 860.13,-391.06 850.75,-391.69 841.2,-392.29 831.5,-392.84 821.68,-393.35 811.74,-393.82 801.72,-394.25 791.61,-394.64 781.45,-394.97 771.22,-395.26 760.96,-395.51 750.66,-395.7 740.34,-395.85 730,-395.95 719.65,-396 709.29,-396 698.94,-395.95 688.6,-395.85 678.28,-395.7 667.98,-395.51 657.71,-395.26 647.49,-394.97 637.32,-394.64 627.22,-394.25 617.19,-393.82 607.26,-393.35 597.44,-392.84 587.74,-392.29 578.19,-391.69 568.81,-391.06 559.62,-390.39 550.65,-389.69 541.92,-388.96 533.47,-388.2 525.32,-387.41 517.5,-386.59 510.05,-385.75 503,-384.89 496.38,-384.01 490.23,-383.11 484.58,-382.2 479.47,-381.28 474.92,-380.35 470.98,-379.41 467.68,-378.47 465.04,-377.53 463.09,-376.59 461.87,-375.65 461.39,-374.72 461.68,-373.8 462.75,-372.89 464.63,-371.99 467.33,-371.11 470.85,-370.25 475.19,-369.41 480.37,-368.59 486.37,-367.8 493.2,-367.04 500.82,-366.31 509.24,-365.61 518.43,-364.94 528.36,-364.31 539.01,-363.71 550.34,-363.16 562.31,-362.65 574.88,-362.18 588.01,-361.75 601.65,-361.36 615.75,-361.03 630.24,-360.74 645.08,-360.49 660.2,-360.3 675.54,-360.15 691.05,-360.05 706.65,-360 722.29,-360 737.89,-360.05"/>
<text text-anchor="middle" x="714.47" y="-372.95" font-family="Times,serif" font-size="14.00">value: assigment, id: 4, ot: a WRITE a READ &#160;BIN_PLUS 6</text>
</g>
<!-- value: while, id: 1, ot: a READ &#160;BIN_GREATER 10&#45;&gt;value: assigment, id: 4, ot: a WRITE a READ &#160;BIN_PLUS 6 -->
<g id="edge4" class="edge">
<title>value: while, id: 1, ot: a READ &#160;BIN_GREATER 10&#45;&gt;value: assigment, id: 4, ot: a WRITE a READ &#160;BIN_PLUS 6</title>
<path fill="none" stroke="black" d="M332.11,-433.29C411.28,-422.05 517.65,-406.95 598.09,-395.52"/>
<polygon fill="black" stroke="black" points="598.36,-399.02 607.77,-394.15 597.37,-392.09 598.36,-399.02"/>
</g>
<!-- value: assigment, id: 2, ot: a WRITE 2 BIN_PLUS 3&#45;&gt;value: while, id: 1, ot: a READ &#160;BIN_GREATER 10 -->
<g id="edge3" class="edge">
<title>value: assigment, id: 2, ot: a WRITE 2 BIN_PLUS 3&#45;&gt;value: while, id: 1, ot: a READ &#160;BIN_GREATER 10</title>
<path fill="none" stroke="black" d="M227.36,-396.1C228.13,-403.37 228.38,-412.04 228.12,-420.24"/>
<polygon fill="black" stroke="black" points="224.63,-419.98 227.48,-430.19 231.62,-420.43 224.63,-419.98"/>
</g>
<!-- value: if, id: 5, ot: a READ &#160;BIN_GREATER 10 -->
<g id="node5" class="node">
<title>value: if, id: 5, ot: a READ &#160;BIN_GREATER 10</title>
<polygon fill="aquamarine" stroke="black" points="733.35,-288.05 745.85,-288.15 758.22,-288.3 770.41,-288.49 782.37,-288.74 794.06,-289.03 805.42,-289.36 816.41,-289.75 827,-290.18 837.14,-290.65 846.79,-291.16 855.92,-291.71 864.5,-292.31 872.51,-292.94 879.92,-293.61 886.7,-294.31 892.85,-295.04 898.35,-295.8 903.19,-296.59 907.37,-297.41 910.87,-298.25 913.71,-299.11 915.88,-299.99 917.4,-300.89 918.26,-301.8 918.5,-302.72 918.11,-303.65 917.12,-304.59 915.56,-305.53 913.43,-306.47 910.76,-307.41 907.59,-308.35 903.92,-309.28 899.8,-310.2 895.25,-311.11 890.29,-312.01 884.95,-312.89 879.27,-313.75 873.26,-314.59 866.96,-315.41 860.39,-316.2 853.57,-316.96 846.54,-317.69 839.3,-318.39 831.9,-319.06 824.33,-319.69 816.64,-320.29 808.82,-320.84 800.9,-321.35 792.89,-321.82 784.81,-322.25 776.66,-322.64 768.46,-322.97 760.22,-323.26 751.95,-323.51 743.65,-323.7 735.32,-323.85 726.99,-323.95 718.64,-324 710.3,-324 701.95,-323.95 693.62,-323.85 685.29,-323.7 676.99,-323.51 668.72,-323.26 660.47,-322.97 652.28,-322.64 644.13,-322.25 636.05,-321.82 628.04,-321.35 620.12,-320.84 612.3,-320.29 604.6,-319.69 597.04,-319.06 589.64,-318.39 582.4,-317.69 575.37,-316.96 568.55,-316.2 561.98,-315.41 555.68,-314.59 549.67,-313.75 543.99,-312.89 538.65,-312.01 533.69,-311.11 529.14,-310.2 525.02,-309.28 521.35,-308.35 518.18,-307.41 515.51,-306.47 513.38,-305.53 511.81,-304.59 510.83,-303.65 510.44,-302.72 510.67,-301.8 511.54,-300.89 513.06,-299.99 515.23,-299.11 518.07,-298.25 521.57,-297.41 525.75,-296.59 530.58,-295.8 536.08,-295.04 542.23,-294.31 549.02,-293.61 556.43,-292.94 564.44,-292.31 573.02,-291.71 582.15,-291.16 591.8,-290.65 601.94,-290.18 612.52,-289.75 623.52,-289.36 634.88,-289.03 646.57,-288.74 658.53,-288.49 670.72,-288.3 683.09,-288.15 695.59,-288.05 708.17,-288 720.77,-288 733.35,-288.05"/>
<text text-anchor="middle" x="714.47" y="-300.95" font-family="Times,serif" font-size="14.00">value: if, id: 5, ot: a READ &#160;BIN_GREATER 10</text>
</g>
<!-- value: assigment, id: 4, ot: a WRITE a READ &#160;BIN_PLUS 6&#45;&gt;value: if, id: 5, ot: a READ &#160;BIN_GREATER 10 -->
<g id="edge5" class="edge">
<title>value: assigment, id: 4, ot: a WRITE a READ &#160;BIN_PLUS 6&#45;&gt;value: if, id: 5, ot: a READ &#160;BIN_GREATER 10</title>
<path fill="none" stroke="black" d="M714.47,-359.7C714.47,-352.41 714.47,-343.73 714.47,-335.54"/>
<polygon fill="black" stroke="black" points="717.97,-335.62 714.47,-325.62 710.97,-335.62 717.97,-335.62"/>
</g>
<!-- value: assigment, id: 6, ot: a WRITE a READ &#160;BIN_MUL 2 -->
<g id="node6" class="node">
<title>value: assigment, id: 6, ot: a WRITE a READ &#160;BIN_MUL 2</title>
<polygon fill="aquamarine" stroke="black" points="477.69,-216.05 493.06,-216.15 508.27,-216.3 523.26,-216.49 537.97,-216.74 552.34,-217.03 566.31,-217.36 579.83,-217.75 592.85,-218.18 605.32,-218.65 617.19,-219.16 628.42,-219.71 638.97,-220.31 648.82,-220.94 657.93,-221.61 666.27,-222.31 673.84,-223.04 680.6,-223.8 686.55,-224.59 691.68,-225.41 695.99,-226.25 699.48,-227.11 702.15,-227.99 704.02,-228.89 705.08,-229.8 705.37,-230.72 704.9,-231.65 703.68,-232.59 701.75,-233.53 699.14,-234.47 695.86,-235.41 691.95,-236.35 687.45,-237.28 682.38,-238.2 676.78,-239.11 670.68,-240.01 664.12,-240.89 657.13,-241.75 649.74,-242.59 641.99,-243.41 633.91,-244.2 625.53,-244.96 616.88,-245.69 607.98,-246.39 598.87,-247.06 589.57,-247.69 580.11,-248.29 570.49,-248.84 560.75,-249.35 550.91,-249.82 540.97,-250.25 530.95,-250.64 520.87,-250.97 510.73,-251.26 500.56,-251.51 490.35,-251.7 480.11,-251.85 469.86,-251.95 459.6,-252 449.34,-252 439.08,-251.95 428.82,-251.85 418.59,-251.7 408.38,-251.51 398.2,-251.26 388.07,-250.97 377.99,-250.64 367.97,-250.25 358.03,-249.82 348.18,-249.35 338.44,-248.84 328.83,-248.29 319.36,-247.69 310.06,-247.06 300.96,-246.39 292.06,-245.69 283.41,-244.96 275.03,-244.2 266.95,-243.41 259.2,-242.59 251.81,-241.75 244.82,-240.89 238.26,-240.01 232.16,-239.11 226.56,-238.2 221.49,-237.28 216.99,-236.35 213.08,-235.41 209.8,-234.47 207.18,-233.53 205.26,-232.59 204.04,-231.65 203.57,-230.72 203.85,-229.8 204.92,-228.89 206.79,-227.99 209.46,-227.11 212.95,-226.25 217.25,-225.41 222.39,-224.59 228.34,-223.8 235.1,-223.04 242.66,-222.31 251.01,-221.61 260.12,-220.94 269.97,-220.31 280.52,-219.71 291.75,-219.16 303.62,-218.65 316.09,-218.18 329.1,-217.75 342.62,-217.36 356.6,-217.03 370.96,-216.74 385.67,-216.49 400.67,-216.3 415.88,-216.15 431.25,-216.05 446.72,-216 462.22,-216 477.69,-216.05"/>
<text text-anchor="middle" x="454.47" y="-228.95" font-family="Times,serif" font-size="14.00">value: assigment, id: 6, ot: a WRITE a READ &#160;BIN_MUL 2</text>
</g>
<!-- value: if, id: 5, ot: a READ &#160;BIN_GREATER 10&#45;&gt;value: assigment, id: 6, ot: a WRITE a READ &#160;BIN_MUL 2 -->
<g id="edge6" class="edge">
<title>value: if, id: 5, ot: a READ &#160;BIN_GREATER 10&#45;&gt;value: assigment, id: 6, ot: a WRITE a READ &#160;BIN_MUL 2</title>
<path fill="none" stroke="black" d="M651.86,-288.14C614.31,-278.03 566.39,-265.13 527.16,-254.57"/>
<polygon fill="black" stroke="black" points="528.11,-251.2 517.55,-251.98 526.29,-257.96 528.11,-251.2"/>
</g>
<!-- value: assigment, id: 7, ot: a WRITE a READ &#160;BIN_MUL 3 -->
<g id="node11" class="node">
<title>value: assigment, id: 7, ot: a WRITE a READ &#160;BIN_MUL 3</title>
<polygon fill="aquamarine" stroke="black" points="997.69,-216.05 1013.06,-216.15 1028.27,-216.3 1043.26,-216.49 1057.97,-216.74 1072.34,-217.03 1086.31,-217.36 1099.83,-217.75 1112.85,-218.18 1125.32,-218.65 1137.19,-219.16 1148.42,-219.71 1158.97,-220.31 1168.82,-220.94 1177.93,-221.61 1186.27,-222.31 1193.84,-223.04 1200.6,-223.8 1206.55,-224.59 1211.68,-225.41 1215.99,-226.25 1219.48,-227.11 1222.15,-227.99 1224.02,-228.89 1225.08,-229.8 1225.37,-230.72 1224.9,-231.65 1223.68,-232.59 1221.75,-233.53 1219.14,-234.47 1215.86,-235.41 1211.95,-236.35 1207.45,-237.28 1202.38,-238.2 1196.78,-239.11 1190.68,-240.01 1184.12,-240.89 1177.13,-241.75 1169.74,-242.59 1161.99,-243.41 1153.91,-244.2 1145.53,-244.96 1136.88,-245.69 1127.98,-246.39 1118.87,-247.06 1109.57,-247.69 1100.11,-248.29 1090.49,-248.84 1080.75,-249.35 1070.91,-249.82 1060.97,-250.25 1050.95,-250.64 1040.87,-250.97 1030.73,-251.26 1020.56,-251.51 1010.35,-251.7 1000.11,-251.85 989.86,-251.95 979.6,-252 969.34,-252 959.08,-251.95 948.82,-251.85 938.59,-251.7 928.38,-251.51 918.2,-251.26 908.07,-250.97 897.99,-250.64 887.97,-250.25 878.03,-249.82 868.18,-249.35 858.44,-248.84 848.83,-248.29 839.36,-247.69 830.06,-247.06 820.96,-246.39 812.06,-245.69 803.41,-244.96 795.03,-244.2 786.95,-243.41 779.2,-242.59 771.81,-241.75 764.82,-240.89 758.26,-240.01 752.16,-239.11 746.56,-238.2 741.49,-237.28 736.99,-236.35 733.08,-235.41 729.8,-234.47 727.18,-233.53 725.26,-232.59 724.04,-231.65 723.57,-230.72 723.85,-229.8 724.92,-228.89 726.79,-227.99 729.46,-227.11 732.95,-226.25 737.25,-225.41 742.39,-224.59 748.34,-223.8 755.1,-223.04 762.66,-222.31 771.01,-221.61 780.12,-220.94 789.97,-220.31 800.52,-219.71 811.75,-219.16 823.62,-218.65 836.09,-218.18 849.1,-217.75 862.62,-217.36 876.6,-217.03 890.96,-216.74 905.67,-216.49 920.67,-216.3 935.88,-216.15 951.25,-216.05 966.72,-216 982.22,-216 997.69,-216.05"/>
<text text-anchor="middle" x="974.47" y="-228.95" font-family="Times,serif" font-size="14.00">value: assigment, id: 7, ot: a WRITE a READ &#160;BIN_MUL 3</text>
</g>
<!-- value: if, id: 5, ot: a READ &#160;BIN_GREATER 10&#45;&gt;value: assigment, id: 7, ot: a WRITE a READ &#160;BIN_MUL 3 -->
<g id="edge12" class="edge">
<title>value: if, id: 5, ot: a READ &#160;BIN_GREATER 10&#45;&gt;value: assigment, id: 7, ot: a WRITE a READ &#160;BIN_MUL 3</title>
<path fill="none" stroke="black" d="M777.08,-288.14C814.63,-278.03 862.55,-265.13 901.78,-254.57"/>
<polygon fill="black" stroke="black" points="902.65,-257.96 911.39,-251.98 900.83,-251.2 902.65,-257.96"/>
</g>
<!-- value: if, id: 8, ot: x READ &#160;BIN_LESS 10 -->
<g id="node7" class="node">
<title>value: if, id: 8, ot: x READ &#160;BIN_LESS 10</title>
<polygon fill="aquamarine" stroke="black" points="731.43,-144.05 742.66,-144.15 753.78,-144.3 764.73,-144.49 775.48,-144.74 785.98,-145.03 796.19,-145.36 806.07,-145.75 815.58,-146.18 824.68,-146.65 833.35,-147.16 841.56,-147.71 849.27,-148.31 856.47,-148.94 863.12,-149.61 869.22,-150.31 874.75,-151.04 879.69,-151.8 884.04,-152.59 887.79,-153.41 890.93,-154.25 893.48,-155.11 895.43,-155.99 896.8,-156.89 897.58,-157.8 897.79,-158.72 897.44,-159.65 896.55,-160.59 895.14,-161.53 893.23,-162.47 890.84,-163.41 887.98,-164.35 884.69,-165.28 880.99,-166.2 876.89,-167.11 872.44,-168.01 867.64,-168.89 862.54,-169.75 857.14,-170.59 851.48,-171.41 845.57,-172.2 839.45,-172.96 833.13,-173.69 826.63,-174.39 819.98,-175.06 813.18,-175.69 806.26,-176.29 799.24,-176.84 792.12,-177.35 784.93,-177.82 777.67,-178.25 770.35,-178.64 762.98,-178.97 755.58,-179.26 748.14,-179.51 740.68,-179.7 733.21,-179.85 725.72,-179.95 718.22,-180 710.72,-180 703.22,-179.95 695.73,-179.85 688.25,-179.7 680.8,-179.51 673.36,-179.26 665.96,-178.97 658.59,-178.64 651.27,-178.25 644.01,-177.82 636.81,-177.35 629.7,-176.84 622.67,-176.29 615.76,-175.69 608.96,-175.06 602.31,-174.39 595.81,-173.69 589.49,-172.96 583.37,-172.2 577.46,-171.41 571.8,-170.59 566.4,-169.75 561.29,-168.89 556.5,-168.01 552.04,-167.11 547.95,-166.2 544.25,-165.28 540.96,-164.35 538.1,-163.41 535.71,-162.47 533.8,-161.53 532.39,-160.59 531.5,-159.65 531.15,-158.72 531.36,-157.8 532.14,-156.89 533.5,-155.99 535.46,-155.11 538,-154.25 541.15,-153.41 544.9,-152.59 549.25,-151.8 554.19,-151.04 559.72,-150.31 565.82,-149.61 572.47,-148.94 579.67,-148.31 587.38,-147.71 595.58,-147.16 604.26,-146.65 613.36,-146.18 622.87,-145.75 632.75,-145.36 642.96,-145.03 653.46,-144.74 664.21,-144.49 675.16,-144.3 686.27,-144.15 697.51,-144.05 708.81,-144 720.13,-144 731.43,-144.05"/>
<text text-anchor="middle" x="714.47" y="-156.95" font-family="Times,serif" font-size="14.00">value: if, id: 8, ot: x READ &#160;BIN_LESS 10</text>
</g>
<!-- value: assigment, id: 6, ot: a WRITE a READ &#160;BIN_MUL 2&#45;&gt;value: if, id: 8, ot: x READ &#160;BIN_LESS 10 -->
<g id="edge7" class="edge">
<title>value: assigment, id: 6, ot: a WRITE a READ &#160;BIN_MUL 2&#45;&gt;value: if, id: 8, ot: x READ &#160;BIN_LESS 10</title>
<path fill="none" stroke="black" d="M517.74,-215.97C556.07,-205.65 605.03,-192.47 644.51,-181.83"/>
<polygon fill="black" stroke="black" points="645.17,-185.28 653.92,-179.3 643.35,-178.52 645.17,-185.28"/>
</g>
<!-- value: assigment, id: 9, ot: x WRITE x READ &#160;BIN_MUL 2 -->
<g id="node8" class="node">
<title>value: assigment, id: 9, ot: x WRITE x READ &#160;BIN_MUL 2</title>
<polygon fill="aquamarine" stroke="black" points="469.79,-72.05 485.23,-72.15 500.51,-72.3 515.56,-72.49 530.34,-72.74 544.77,-73.03 558.8,-73.36 572.38,-73.75 585.45,-74.18 597.97,-74.65 609.89,-75.16 621.17,-75.71 631.77,-76.31 641.66,-76.94 650.81,-77.61 659.19,-78.31 666.79,-79.04 673.58,-79.8 679.56,-80.59 684.71,-81.41 689.04,-82.25 692.55,-83.11 695.23,-83.99 697.1,-84.89 698.17,-85.8 698.46,-86.72 697.98,-87.65 696.77,-88.59 694.83,-89.53 692.2,-90.47 688.91,-91.41 684.98,-92.35 680.46,-93.28 675.37,-94.2 669.74,-95.11 663.62,-96.01 657.03,-96.89 650.01,-97.75 642.59,-98.59 634.8,-99.41 626.69,-100.2 618.27,-100.96 609.58,-101.69 600.65,-102.39 591.5,-103.06 582.16,-103.69 572.65,-104.29 563,-104.84 553.22,-105.35 543.33,-105.82 533.34,-106.25 523.28,-106.64 513.16,-106.97 502.98,-107.26 492.76,-107.51 482.5,-107.7 472.23,-107.85 461.93,-107.95 451.62,-108 441.31,-108 431.01,-107.95 420.71,-107.85 410.43,-107.7 400.18,-107.51 389.96,-107.26 379.78,-106.97 369.66,-106.64 359.6,-106.25 349.61,-105.82 339.72,-105.35 329.94,-104.84 320.29,-104.29 310.78,-103.69 301.44,-103.06 292.29,-102.39 283.36,-101.69 274.67,-100.96 266.25,-100.2 258.13,-99.41 250.35,-98.59 242.93,-97.75 235.91,-96.89 229.32,-96.01 223.2,-95.11 217.57,-94.2 212.48,-93.28 207.95,-92.35 204.03,-91.41 200.74,-90.47 198.11,-89.53 196.17,-88.59 194.95,-87.65 194.48,-86.72 194.77,-85.8 195.84,-84.89 197.71,-83.99 200.39,-83.11 203.9,-82.25 208.22,-81.41 213.38,-80.59 219.36,-79.8 226.15,-79.04 233.74,-78.31 242.13,-77.61 251.28,-76.94 261.17,-76.31 271.77,-75.71 283.05,-75.16 294.97,-74.65 307.49,-74.18 320.56,-73.75 334.14,-73.36 348.17,-73.03 362.6,-72.74 377.38,-72.49 392.43,-72.3 407.71,-72.15 423.15,-72.05 438.69,-72 454.25,-72 469.79,-72.05"/>
<text text-anchor="middle" x="446.47" y="-84.95" font-family="Times,serif" font-size="14.00">value: assigment, id: 9, ot: x WRITE x READ &#160;BIN_MUL 2</text>
</g>
<!-- value: if, id: 8, ot: x READ &#160;BIN_LESS 10&#45;&gt;value: assigment, id: 9, ot: x WRITE x READ &#160;BIN_MUL 2 -->
<g id="edge8" class="edge">
<title>value: if, id: 8, ot: x READ &#160;BIN_LESS 10&#45;&gt;value: assigment, id: 9, ot: x WRITE x READ &#160;BIN_MUL 2</title>
<path fill="none" stroke="black" d="M650.62,-144.32C611.62,-134.14 561.58,-121.07 520.8,-110.41"/>
<polygon fill="black" stroke="black" points="521.86,-107.07 511.3,-107.93 520.09,-113.85 521.86,-107.07"/>
</g>
<!-- value: assigment, id: 10, ot: x WRITE x READ &#160;BIN_MUL 777 -->
<g id="node10" class="node">
<title>value: assigment, id: 10, ot: x WRITE x READ &#160;BIN_MUL 777</title>
<polygon fill="aquamarine" stroke="black" points="1008.15,-72.05 1024.49,-72.15 1040.66,-72.3 1056.6,-72.49 1072.23,-72.74 1087.51,-73.03 1102.36,-73.36 1116.73,-73.75 1130.57,-74.18 1143.82,-74.65 1156.44,-75.16 1168.37,-75.71 1179.59,-76.31 1190.06,-76.94 1199.74,-77.61 1208.62,-78.31 1216.66,-79.04 1223.85,-79.8 1230.17,-80.59 1235.63,-81.41 1240.21,-82.25 1243.92,-83.11 1246.76,-83.99 1248.74,-84.89 1249.87,-85.8 1250.18,-86.72 1249.67,-87.65 1248.38,-88.59 1246.33,-89.53 1243.55,-90.47 1240.07,-91.41 1235.91,-92.35 1231.12,-93.28 1225.74,-94.2 1219.78,-95.11 1213.3,-96.01 1206.32,-96.89 1198.89,-97.75 1191.04,-98.59 1182.8,-99.41 1174.21,-100.2 1165.3,-100.96 1156.11,-101.69 1146.65,-102.39 1136.97,-103.06 1127.09,-103.69 1117.02,-104.29 1106.8,-104.84 1096.45,-105.35 1085.98,-105.82 1075.42,-106.25 1064.77,-106.64 1054.05,-106.97 1043.28,-107.26 1032.46,-107.51 1021.61,-107.7 1010.73,-107.85 999.83,-107.95 988.92,-108 978.01,-108 967.11,-107.95 956.21,-107.85 945.33,-107.7 934.48,-107.51 923.66,-107.26 912.89,-106.97 902.17,-106.64 891.52,-106.25 880.96,-105.82 870.49,-105.35 860.14,-104.84 849.92,-104.29 839.85,-103.69 829.97,-103.06 820.28,-102.39 810.83,-101.69 801.63,-100.96 792.73,-100.2 784.14,-99.41 775.9,-98.59 768.05,-97.75 760.61,-96.89 753.64,-96.01 747.16,-95.11 741.2,-94.2 735.81,-93.28 731.03,-92.35 726.87,-91.41 723.39,-90.47 720.61,-89.53 718.56,-88.59 717.27,-87.65 716.76,-86.72 717.07,-85.8 718.2,-84.89 720.18,-83.99 723.02,-83.11 726.73,-82.25 731.31,-81.41 736.77,-80.59 743.09,-79.8 750.28,-79.04 758.32,-78.31 767.19,-77.61 776.88,-76.94 787.34,-76.31 798.56,-75.71 810.5,-75.16 823.12,-74.65 836.37,-74.18 850.21,-73.75 864.58,-73.36 879.43,-73.03 894.7,-72.74 910.34,-72.49 926.28,-72.3 942.45,-72.15 958.79,-72.05 975.23,-72 991.71,-72 1008.15,-72.05"/>
<text text-anchor="middle" x="983.47" y="-84.95" font-family="Times,serif" font-size="14.00">value: assigment, id: 10, ot: x WRITE x READ &#160;BIN_MUL 777</text>
</g>
<!-- value: if, id: 8, ot: x READ &#160;BIN_LESS 10&#45;&gt;value: assigment, id: 10, ot: x WRITE x READ &#160;BIN_MUL 777 -->
<g id="edge10" class="edge">
<title>value: if, id: 8, ot: x READ &#160;BIN_LESS 10&#45;&gt;value: assigment, id: 10, ot: x WRITE x READ &#160;BIN_MUL 777</title>
<path fill="none" stroke="black" d="M778.56,-144.32C817.71,-134.14 867.93,-121.07 908.86,-110.41"/>
<polygon fill="black" stroke="black" points="909.61,-113.84 918.41,-107.93 907.85,-107.06 909.61,-113.84"/>
</g>
<!-- value: assigment, id: 11, ot: y WRITE 7 -->
<g id="node9" class="node">
<title>value: assigment, id: 11, ot: y WRITE 7</title>
<polygon fill="aquamarine" stroke="black" points="730.27,-0.05 740.74,-0.15 751.09,-0.3 761.3,-0.49 771.31,-0.74 781.09,-1.03 790.6,-1.36 799.8,-1.75 808.66,-2.18 817.15,-2.65 825.22,-3.16 832.87,-3.71 840.05,-4.31 846.76,-4.94 852.96,-5.61 858.64,-6.31 863.79,-7.04 868.39,-7.8 872.44,-8.59 875.93,-9.41 878.87,-10.25 881.24,-11.11 883.06,-11.99 884.33,-12.89 885.05,-13.8 885.25,-14.72 884.93,-15.65 884.1,-16.59 882.79,-17.53 881.01,-18.47 878.78,-19.41 876.12,-20.35 873.05,-21.28 869.6,-22.2 865.79,-23.11 861.64,-24.01 857.17,-24.89 852.41,-25.75 847.38,-26.59 842.11,-27.41 836.61,-28.2 830.9,-28.96 825.01,-29.69 818.96,-30.39 812.76,-31.06 806.43,-31.69 799.99,-32.29 793.44,-32.84 786.81,-33.35 780.11,-33.82 773.35,-34.25 766.53,-34.64 759.67,-34.97 752.77,-35.26 745.84,-35.51 738.89,-35.7 731.93,-35.85 724.95,-35.95 717.96,-36 710.98,-36 703.99,-35.95 697.01,-35.85 690.05,-35.7 683.1,-35.51 676.17,-35.26 669.27,-34.97 662.41,-34.64 655.59,-34.25 648.83,-33.82 642.12,-33.35 635.5,-32.84 628.95,-32.29 622.51,-31.69 616.18,-31.06 609.98,-30.39 603.92,-29.69 598.04,-28.96 592.33,-28.2 586.83,-27.41 581.56,-26.59 576.53,-25.75 571.77,-24.89 567.3,-24.01 563.15,-23.11 559.34,-22.2 555.89,-21.28 552.82,-20.35 550.16,-19.41 547.93,-18.47 546.15,-17.53 544.84,-16.59 544.01,-15.65 543.69,-14.72 543.88,-13.8 544.61,-12.89 545.88,-11.99 547.7,-11.11 550.07,-10.25 553.01,-9.41 556.5,-8.59 560.55,-7.8 565.15,-7.04 570.3,-6.31 575.98,-5.61 582.18,-4.94 588.88,-4.31 596.07,-3.71 603.71,-3.16 611.79,-2.65 620.28,-2.18 629.14,-1.75 638.34,-1.36 647.85,-1.03 657.63,-0.74 667.64,-0.49 677.85,-0.3 688.2,-0.15 698.67,-0.05 709.19,0 719.74,0 730.27,-0.05"/>
<text text-anchor="middle" x="714.47" y="-12.95" font-family="Times,serif" font-size="14.00">value: assigment, id: 11, ot: y WRITE 7</text>
</g>
<!-- value: assigment, id: 9, ot: x WRITE x READ &#160;BIN_MUL 2&#45;&gt;value: assigment, id: 11, ot: y WRITE 7 -->
<g id="edge9" class="edge">
<title>value: assigment, id: 9, ot: x WRITE x READ &#160;BIN_MUL 2&#45;&gt;value: assigment, id: 11, ot: y WRITE 7</title>
<path fill="none" stroke="black" d="M511.69,-71.97C551.57,-61.55 602.6,-48.22 643.49,-37.54"/>
<polygon fill="black" stroke="black" points="644.21,-40.97 653.01,-35.05 642.45,-34.19 644.21,-40.97"/>
</g>
<!-- value: assigment, id: 10, ot: x WRITE x READ &#160;BIN_MUL 777&#45;&gt;value: assigment, id: 11, ot: y WRITE 7 -->
<g id="edge11" class="edge">
<title>value: assigment, id: 10, ot: x WRITE x READ &#160;BIN_MUL 777&#45;&gt;value: assigment, id: 11, ot: y WRITE 7</title>
<path fill="none" stroke="black" d="M918.01,-71.97C877.84,-61.51 826.39,-48.12 785.27,-37.42"/>
<polygon fill="black" stroke="black" points="786.26,-34.07 775.7,-34.93 784.5,-40.84 786.26,-34.07"/>
</g>
<!-- value: assigment, id: 7, ot: a WRITE a READ &#160;BIN_MUL 3&#45;&gt;value: if, id: 8, ot: x READ &#160;BIN_LESS 10 -->
<g id="edge13" class="edge">
<title>value: assigment, id: 7, ot: a WRITE a READ &#160;BIN_MUL 3&#45;&gt;value: if, id: 8, ot: x READ &#160;BIN_LESS 10</title>
<path fill="none" stroke="black" d="M911.2,-215.97C872.87,-205.65 823.91,-192.47 784.43,-181.83"/>
<polygon fill="black" stroke="black" points="785.59,-178.52 775.02,-179.3 783.77,-185.28 785.59,-178.52"/>
</g>
</g>
</svg>
