<?xml version="1.0" encoding="UTF-8" standalone="no"?>
<!DOCTYPE svg PUBLIC "-//W3C//DTD SVG 1.1//EN"
 "http://www.w3.org/Graphics/SVG/1.1/DTD/svg11.dtd">
<!-- Generated by graphviz version 9.0.0 (20230911.1827)
 -->
<!-- Title: G Pages: 1 -->
<svg width="1795pt" height="620pt"
 viewBox="0.00 0.00 1795.04 620.00" xmlns="http://www.w3.org/2000/svg" xmlns:xlink="http://www.w3.org/1999/xlink">
<g id="graph0" class="graph" transform="scale(1 1) rotate(0) translate(4 616)">
<title>G</title>
<polygon fill="white" stroke="none" points="-4,4 -4,-616 1791.04,-616 1791.04,4 -4,4"/>
<!-- type: source, id: 23 -->
<g id="node1" class="node">
<title>type: source, id: 23</title>
<polygon fill="pink" stroke="black" points="727.75,-576.05 733.14,-576.15 738.47,-576.3 743.72,-576.49 748.88,-576.74 753.92,-577.03 758.81,-577.36 763.55,-577.75 768.11,-578.18 772.48,-578.65 776.64,-579.16 780.58,-579.71 784.28,-580.31 787.73,-580.94 790.92,-581.61 793.84,-582.31 796.5,-583.04 798.87,-583.8 800.95,-584.59 802.75,-585.41 804.26,-586.25 805.48,-587.11 806.42,-587.99 807.07,-588.89 807.45,-589.8 807.55,-590.72 807.38,-591.65 806.96,-592.59 806.28,-593.53 805.36,-594.47 804.21,-595.41 802.84,-596.35 801.27,-597.28 799.49,-598.2 797.53,-599.11 795.39,-600.01 793.09,-600.89 790.64,-601.75 788.05,-602.59 785.33,-603.41 782.5,-604.2 779.56,-604.96 776.53,-605.69 773.42,-606.39 770.22,-607.06 766.96,-607.69 763.65,-608.29 760.28,-608.84 756.86,-609.35 753.41,-609.82 749.93,-610.25 746.42,-610.64 742.88,-610.97 739.33,-611.26 735.77,-611.51 732.19,-611.7 728.6,-611.85 725.01,-611.95 721.41,-612 717.81,-612 714.22,-611.95 710.63,-611.85 707.04,-611.7 703.46,-611.51 699.89,-611.26 696.34,-610.97 692.81,-610.64 689.3,-610.25 685.82,-609.82 682.36,-609.35 678.95,-608.84 675.58,-608.29 672.26,-607.69 669,-607.06 665.81,-606.39 662.69,-605.69 659.66,-604.96 656.73,-604.2 653.89,-603.41 651.18,-602.59 648.59,-601.75 646.14,-600.89 643.84,-600.01 641.7,-599.11 639.74,-598.2 637.96,-597.28 636.38,-596.35 635.01,-595.41 633.86,-594.47 632.95,-593.53 632.27,-592.59 631.85,-591.65 631.68,-590.72 631.78,-589.8 632.15,-588.89 632.81,-587.99 633.74,-587.11 634.97,-586.25 636.48,-585.41 638.28,-584.59 640.36,-583.8 642.73,-583.04 645.38,-582.31 648.31,-581.61 651.5,-580.94 654.95,-580.31 658.65,-579.71 662.59,-579.16 666.75,-578.65 671.11,-578.18 675.68,-577.75 680.42,-577.36 685.31,-577.03 690.35,-576.74 695.5,-576.49 700.76,-576.3 706.09,-576.15 711.48,-576.05 716.9,-576 722.33,-576 727.75,-576.05"/>
<text text-anchor="middle" x="719.61" y="-588.95" font-family="Times,serif" font-size="14.00">type: source, id: 23</text>
</g>
<!-- type: common, id: 22, name: source_item -->
<g id="node2" class="node">
<title>type: common, id: 22, name: source_item</title>
<polygon fill="pink" stroke="black" points="736.17,-504.05 747.14,-504.15 757.99,-504.3 768.68,-504.49 779.17,-504.74 789.42,-505.03 799.39,-505.36 809.03,-505.75 818.31,-506.18 827.21,-506.65 835.67,-507.16 843.68,-507.71 851.21,-508.31 858.23,-508.94 864.73,-509.61 870.68,-510.31 876.08,-511.04 880.9,-511.8 885.15,-512.59 888.81,-513.41 891.88,-514.25 894.37,-515.11 896.27,-515.99 897.6,-516.89 898.36,-517.8 898.57,-518.72 898.23,-519.65 897.37,-520.59 895.99,-521.53 894.12,-522.47 891.79,-523.41 889,-524.35 885.79,-525.28 882.17,-526.2 878.18,-527.11 873.83,-528.01 869.15,-528.89 864.16,-529.75 858.89,-530.59 853.36,-531.41 847.6,-532.2 841.62,-532.96 835.45,-533.69 829.11,-534.39 822.61,-535.06 815.98,-535.69 809.22,-536.29 802.37,-536.84 795.42,-537.35 788.4,-537.82 781.31,-538.25 774.16,-538.64 766.97,-538.97 759.74,-539.26 752.49,-539.51 745.2,-539.7 737.91,-539.85 730.59,-539.95 723.27,-540 715.95,-540 708.63,-539.95 701.32,-539.85 694.02,-539.7 686.74,-539.51 679.48,-539.26 672.25,-538.97 665.06,-538.64 657.92,-538.25 650.83,-537.82 643.81,-537.35 636.86,-536.84 630,-536.29 623.25,-535.69 616.62,-535.06 610.12,-534.39 603.78,-533.69 597.61,-532.96 591.63,-532.2 585.86,-531.41 580.34,-530.59 575.07,-529.75 570.08,-528.89 565.4,-528.01 561.05,-527.11 557.06,-526.2 553.44,-525.28 550.23,-524.35 547.44,-523.41 545.1,-522.47 543.24,-521.53 541.86,-520.59 541,-519.65 540.66,-518.72 540.86,-517.8 541.62,-516.89 542.95,-515.99 544.86,-515.11 547.35,-514.25 550.42,-513.41 554.08,-512.59 558.33,-511.8 563.15,-511.04 568.54,-510.31 574.5,-509.61 580.99,-508.94 588.02,-508.31 595.55,-507.71 603.56,-507.16 612.02,-506.65 620.91,-506.18 630.2,-505.75 639.84,-505.36 649.81,-505.03 660.05,-504.74 670.55,-504.49 681.24,-504.3 692.09,-504.15 703.05,-504.05 714.09,-504 725.14,-504 736.17,-504.05"/>
<text text-anchor="middle" x="719.61" y="-516.95" font-family="Times,serif" font-size="14.00">type: common, id: 22, name: source_item</text>
</g>
<!-- type: source, id: 23&#45;&gt;type: common, id: 22, name: source_item -->
<g id="edge1" class="edge">
<title>type: source, id: 23&#45;&gt;type: common, id: 22, name: source_item</title>
<path fill="none" stroke="black" d="M719.61,-575.7C719.61,-568.41 719.61,-559.73 719.61,-551.54"/>
<polygon fill="black" stroke="black" points="723.11,-551.62 719.61,-541.62 716.11,-551.62 723.11,-551.62"/>
</g>
<!-- type: function_signature, id: 6 -->
<g id="node3" class="node">
<title>type: function_signature, id: 6</title>
<polygon fill="pink" stroke="black" points="582.74,-432.05 590.76,-432.15 598.7,-432.3 606.53,-432.49 614.21,-432.74 621.71,-433.03 629.01,-433.36 636.07,-433.75 642.86,-434.18 649.37,-434.65 655.57,-435.16 661.43,-435.71 666.94,-436.31 672.08,-436.94 676.84,-437.61 681.19,-438.31 685.14,-439.04 688.67,-439.8 691.78,-440.59 694.46,-441.41 696.71,-442.25 698.53,-443.11 699.93,-443.99 700.9,-444.89 701.46,-445.8 701.61,-446.72 701.36,-447.65 700.72,-448.59 699.72,-449.53 698.35,-450.47 696.64,-451.41 694.6,-452.35 692.25,-453.28 689.6,-454.2 686.68,-455.11 683.49,-456.01 680.07,-456.89 676.42,-457.75 672.56,-458.59 668.52,-459.41 664.3,-460.2 659.92,-460.96 655.4,-461.69 650.76,-462.39 646.01,-463.06 641.15,-463.69 636.21,-464.29 631.19,-464.84 626.1,-465.35 620.96,-465.82 615.77,-466.25 610.54,-466.64 605.28,-466.97 599.99,-467.26 594.68,-467.51 589.35,-467.7 584,-467.85 578.65,-467.95 573.29,-468 567.93,-468 562.58,-467.95 557.22,-467.85 551.88,-467.7 546.55,-467.51 541.24,-467.26 535.95,-466.97 530.68,-466.64 525.45,-466.25 520.26,-465.82 515.12,-465.35 510.04,-464.84 505.02,-464.29 500.08,-463.69 495.22,-463.06 490.47,-462.39 485.82,-461.69 481.31,-460.96 476.93,-460.2 472.71,-459.41 468.67,-458.59 464.81,-457.75 461.16,-456.89 457.73,-456.01 454.55,-455.11 451.63,-454.2 448.98,-453.28 446.63,-452.35 444.59,-451.41 442.88,-450.47 441.51,-449.53 440.5,-448.59 439.87,-447.65 439.62,-446.72 439.77,-445.8 440.33,-444.89 441.3,-443.99 442.7,-443.11 444.52,-442.25 446.77,-441.41 449.45,-440.59 452.55,-439.8 456.09,-439.04 460.03,-438.31 464.39,-437.61 469.15,-436.94 474.29,-436.31 479.8,-435.71 485.66,-435.16 491.86,-434.65 498.37,-434.18 505.16,-433.75 512.22,-433.36 519.52,-433.03 527.02,-432.74 534.7,-432.49 542.52,-432.3 550.47,-432.15 558.49,-432.05 566.57,-432 574.66,-432 582.74,-432.05"/>
<text text-anchor="middle" x="570.61" y="-444.95" font-family="Times,serif" font-size="14.00">type: function_signature, id: 6</text>
</g>
<!-- type: common, id: 22, name: source_item&#45;&gt;type: function_signature, id: 6 -->
<g id="edge2" class="edge">
<title>type: common, id: 22, name: source_item&#45;&gt;type: function_signature, id: 6</title>
<path fill="none" stroke="black" d="M683.16,-503.88C662.8,-494.31 637.26,-482.31 615.66,-472.16"/>
<polygon fill="black" stroke="black" points="617.31,-469.07 606.78,-467.99 614.34,-475.41 617.31,-469.07"/>
</g>
<!-- type: common, id: 21, name: body -->
<g id="node10" class="node">
<title>type: common, id: 21, name: body</title>
<polygon fill="pink" stroke="black" points="997.5,-432.05 1006.69,-432.15 1015.79,-432.3 1024.76,-432.49 1033.56,-432.74 1042.15,-433.03 1050.51,-433.36 1058.6,-433.75 1066.38,-434.18 1073.84,-434.65 1080.94,-435.16 1087.65,-435.71 1093.97,-436.31 1099.86,-436.94 1105.31,-437.61 1110.3,-438.31 1114.82,-439.04 1118.87,-439.8 1122.43,-440.59 1125.5,-441.41 1128.07,-442.25 1130.16,-443.11 1131.76,-443.99 1132.87,-444.89 1133.51,-445.8 1133.68,-446.72 1133.4,-447.65 1132.67,-448.59 1131.52,-449.53 1129.95,-450.47 1127.99,-451.41 1125.66,-452.35 1122.96,-453.28 1119.93,-454.2 1116.58,-455.11 1112.93,-456.01 1109.01,-456.89 1104.83,-457.75 1100.41,-458.59 1095.77,-459.41 1090.94,-460.2 1085.93,-460.96 1080.75,-461.69 1075.43,-462.39 1069.98,-463.06 1064.42,-463.69 1058.76,-464.29 1053.01,-464.84 1047.18,-465.35 1041.29,-465.82 1035.35,-466.25 1029.36,-466.64 1023.33,-466.97 1017.27,-467.26 1011.18,-467.51 1005.07,-467.7 998.95,-467.85 992.82,-467.95 986.68,-468 980.54,-468 974.41,-467.95 968.27,-467.85 962.15,-467.7 956.05,-467.51 949.96,-467.26 943.9,-466.97 937.87,-466.64 931.88,-466.25 925.93,-465.82 920.04,-465.35 914.22,-464.84 908.47,-464.29 902.81,-463.69 897.24,-463.06 891.79,-462.39 886.48,-461.69 881.3,-460.96 876.29,-460.2 871.45,-459.41 866.82,-458.59 862.4,-457.75 858.22,-456.89 854.29,-456.01 850.65,-455.11 847.3,-454.2 844.27,-453.28 841.57,-452.35 839.23,-451.41 837.27,-450.47 835.71,-449.53 834.55,-448.59 833.83,-447.65 833.55,-446.72 833.72,-445.8 834.36,-444.89 835.47,-443.99 837.07,-443.11 839.15,-442.25 841.73,-441.41 844.8,-440.59 848.36,-439.8 852.41,-439.04 856.93,-438.31 861.92,-437.61 867.37,-436.94 873.26,-436.31 879.57,-435.71 886.29,-435.16 893.39,-434.65 900.84,-434.18 908.63,-433.75 916.72,-433.36 925.07,-433.03 933.67,-432.74 942.47,-432.49 951.43,-432.3 960.53,-432.15 969.73,-432.05 978.98,-432 988.25,-432 997.5,-432.05"/>
<text text-anchor="middle" x="983.61" y="-444.95" font-family="Times,serif" font-size="14.00">type: common, id: 21, name: body</text>
</g>
<!-- type: common, id: 22, name: source_item&#45;&gt;type: common, id: 21, name: body -->
<g id="edge9" class="edge">
<title>type: common, id: 22, name: source_item&#45;&gt;type: common, id: 21, name: body</title>
<path fill="none" stroke="black" d="M782.18,-504.41C822.12,-493.82 873.93,-480.08 915,-469.19"/>
<polygon fill="black" stroke="black" points="915.78,-472.61 924.55,-466.66 913.98,-465.84 915.78,-472.61"/>
</g>
<!-- type: identifier, id: 0, value: norma -->
<g id="node4" class="node">
<title>type: identifier, id: 0, value: norma</title>
<polygon fill="pink" stroke="black" points="164.55,-360.05 173.78,-360.15 182.91,-360.3 191.91,-360.49 200.74,-360.74 209.37,-361.03 217.75,-361.36 225.87,-361.75 233.68,-362.18 241.17,-362.65 248.29,-363.16 255.03,-363.71 261.37,-364.31 267.28,-364.94 272.75,-365.61 277.76,-366.31 282.3,-367.04 286.36,-367.8 289.93,-368.59 293.01,-369.41 295.6,-370.25 297.69,-371.11 299.3,-371.99 300.41,-372.89 301.05,-373.8 301.23,-374.72 300.94,-375.65 300.21,-376.59 299.06,-377.53 297.48,-378.47 295.52,-379.41 293.17,-380.35 290.47,-381.28 287.43,-382.2 284.06,-383.11 280.4,-384.01 276.46,-384.89 272.27,-385.75 267.83,-386.59 263.18,-387.41 258.33,-388.2 253.3,-388.96 248.1,-389.69 242.77,-390.39 237.3,-391.06 231.72,-391.69 226.03,-392.29 220.26,-392.84 214.42,-393.35 208.5,-393.82 202.54,-394.25 196.52,-394.64 190.47,-394.97 184.39,-395.26 178.28,-395.51 172.15,-395.7 166.01,-395.85 159.85,-395.95 153.69,-396 147.53,-396 141.37,-395.95 135.22,-395.85 129.08,-395.7 122.95,-395.51 116.84,-395.26 110.75,-394.97 104.7,-394.64 98.69,-394.25 92.72,-393.82 86.81,-393.35 80.97,-392.84 75.19,-392.29 69.51,-391.69 63.93,-391.06 58.46,-390.39 53.12,-389.69 47.93,-388.96 42.9,-388.2 38.05,-387.41 33.4,-386.59 28.96,-385.75 24.76,-384.89 20.83,-384.01 17.16,-383.11 13.8,-382.2 10.76,-381.28 8.05,-380.35 5.71,-379.41 3.74,-378.47 2.17,-377.53 1.01,-376.59 0.28,-375.65 0,-374.72 0.17,-373.8 0.81,-372.89 1.93,-371.99 3.54,-371.11 5.63,-370.25 8.22,-369.41 11.3,-368.59 14.87,-367.8 18.93,-367.04 23.47,-366.31 28.48,-365.61 33.95,-364.94 39.86,-364.31 46.2,-363.71 52.94,-363.16 60.06,-362.65 67.54,-362.18 75.36,-361.75 83.47,-361.36 91.86,-361.03 100.49,-360.74 109.32,-360.49 118.32,-360.3 127.45,-360.15 136.68,-360.05 145.96,-360 155.27,-360 164.55,-360.05"/>
<text text-anchor="middle" x="150.61" y="-372.95" font-family="Times,serif" font-size="14.00">type: identifier, id: 0, value: norma</text>
</g>
<!-- type: function_signature, id: 6&#45;&gt;type: identifier, id: 0, value: norma -->
<g id="edge3" class="edge">
<title>type: function_signature, id: 6&#45;&gt;type: identifier, id: 0, value: norma</title>
<path fill="none" stroke="black" d="M485.11,-434.75C414.31,-422.95 313.95,-406.22 241.66,-394.17"/>
<polygon fill="black" stroke="black" points="242.24,-390.72 231.8,-392.53 241.09,-397.63 242.24,-390.72"/>
</g>
<!-- type: common, id: 4, name: list -->
<g id="node5" class="node">
<title>type: common, id: 4, name: list</title>
<polygon fill="pink" stroke="black" points="469.34,-360.05 477.77,-360.15 486.11,-360.3 494.32,-360.49 502.39,-360.74 510.26,-361.03 517.92,-361.36 525.33,-361.75 532.47,-362.18 539.3,-362.65 545.81,-363.16 551.96,-363.71 557.75,-364.31 563.15,-364.94 568.14,-365.61 572.71,-366.31 576.86,-367.04 580.57,-367.8 583.83,-368.59 586.64,-369.41 589.01,-370.25 590.92,-371.11 592.38,-371.99 593.4,-372.89 593.99,-373.8 594.15,-374.72 593.89,-375.65 593.22,-376.59 592.16,-377.53 590.73,-378.47 588.93,-379.41 586.79,-380.35 584.32,-381.28 581.54,-382.2 578.47,-383.11 575.13,-384.01 571.53,-384.89 567.7,-385.75 563.65,-386.59 559.4,-387.41 554.97,-388.2 550.38,-388.96 545.64,-389.69 540.76,-390.39 535.77,-391.06 530.67,-391.69 525.48,-392.29 520.21,-392.84 514.87,-393.35 509.48,-393.82 504.03,-394.25 498.54,-394.64 493.01,-394.97 487.46,-395.26 481.88,-395.51 476.28,-395.7 470.67,-395.85 465.05,-395.95 459.43,-396 453.8,-396 448.18,-395.95 442.56,-395.85 436.95,-395.7 431.35,-395.51 425.77,-395.26 420.22,-394.97 414.69,-394.64 409.2,-394.25 403.75,-393.82 398.35,-393.35 393.01,-392.84 387.74,-392.29 382.56,-391.69 377.46,-391.06 372.46,-390.39 367.59,-389.69 362.85,-388.96 358.25,-388.2 353.82,-387.41 349.58,-386.59 345.53,-385.75 341.69,-384.89 338.1,-384.01 334.75,-383.11 331.68,-382.2 328.91,-381.28 326.44,-380.35 324.29,-379.41 322.5,-378.47 321.06,-377.53 320.01,-376.59 319.34,-375.65 319.08,-374.72 319.24,-373.8 319.82,-372.89 320.84,-371.99 322.31,-371.11 324.22,-370.25 326.58,-369.41 329.4,-368.59 332.66,-367.8 336.37,-367.04 340.51,-366.31 345.09,-365.61 350.08,-364.94 355.48,-364.31 361.26,-363.71 367.42,-363.16 373.93,-362.65 380.76,-362.18 387.89,-361.75 395.31,-361.36 402.96,-361.03 410.84,-360.74 418.9,-360.49 427.12,-360.3 435.46,-360.15 443.89,-360.05 452.37,-360 460.86,-360 469.34,-360.05"/>
<text text-anchor="middle" x="456.61" y="-372.95" font-family="Times,serif" font-size="14.00">type: common, id: 4, name: list</text>
</g>
<!-- type: function_signature, id: 6&#45;&gt;type: common, id: 4, name: list -->
<g id="edge4" class="edge">
<title>type: function_signature, id: 6&#45;&gt;type: common, id: 4, name: list</title>
<path fill="none" stroke="black" d="M542.73,-431.88C527.88,-422.76 509.43,-411.43 493.42,-401.6"/>
<polygon fill="black" stroke="black" points="495.46,-398.75 485.11,-396.5 491.8,-404.71 495.46,-398.75"/>
</g>
<!-- type: identifier, id: 5, value: vg -->
<g id="node9" class="node">
<title>type: identifier, id: 5, value: vg</title>
<polygon fill="pink" stroke="black" points="759.09,-360.05 767.35,-360.15 775.52,-360.3 783.58,-360.49 791.48,-360.74 799.2,-361.03 806.71,-361.36 813.97,-361.75 820.97,-362.18 827.66,-362.65 834.04,-363.16 840.07,-363.71 845.75,-364.31 851.04,-364.94 855.93,-365.61 860.41,-366.31 864.48,-367.04 868.11,-367.8 871.31,-368.59 874.07,-369.41 876.38,-370.25 878.26,-371.11 879.69,-371.99 880.69,-372.89 881.27,-373.8 881.42,-374.72 881.17,-375.65 880.51,-376.59 879.48,-377.53 878.07,-378.47 876.31,-379.41 874.21,-380.35 871.79,-381.28 869.07,-382.2 866.06,-383.11 862.78,-384.01 859.26,-384.89 855.5,-385.75 851.53,-386.59 847.37,-387.41 843.02,-388.2 838.52,-388.96 833.87,-389.69 829.1,-390.39 824.2,-391.06 819.2,-391.69 814.12,-392.29 808.95,-392.84 803.72,-393.35 798.43,-393.82 793.09,-394.25 787.71,-394.64 782.29,-394.97 776.84,-395.26 771.38,-395.51 765.89,-395.7 760.39,-395.85 754.88,-395.95 749.37,-396 743.86,-396 738.34,-395.95 732.83,-395.85 727.34,-395.7 721.85,-395.51 716.38,-395.26 710.94,-394.97 705.52,-394.64 700.14,-394.25 694.8,-393.82 689.51,-393.35 684.27,-392.84 679.11,-392.29 674.02,-391.69 669.03,-391.06 664.13,-390.39 659.35,-389.69 654.71,-388.96 650.2,-388.2 645.86,-387.41 641.7,-386.59 637.73,-385.75 633.97,-384.89 630.45,-384.01 627.17,-383.11 624.16,-382.2 621.44,-381.28 619.02,-380.35 616.92,-379.41 615.16,-378.47 613.75,-377.53 612.71,-376.59 612.06,-375.65 611.81,-374.72 611.96,-373.8 612.53,-372.89 613.54,-371.99 614.97,-371.11 616.84,-370.25 619.16,-369.41 621.92,-368.59 625.12,-367.8 628.75,-367.04 632.81,-366.31 637.3,-365.61 642.19,-364.94 647.48,-364.31 653.15,-363.71 659.19,-363.16 665.56,-362.65 672.26,-362.18 679.26,-361.75 686.52,-361.36 694.03,-361.03 701.75,-360.74 709.65,-360.49 717.71,-360.3 725.88,-360.15 734.14,-360.05 742.45,-360 750.78,-360 759.09,-360.05"/>
<text text-anchor="middle" x="746.61" y="-372.95" font-family="Times,serif" font-size="14.00">type: identifier, id: 5, value: vg</text>
</g>
<!-- type: function_signature, id: 6&#45;&gt;type: identifier, id: 5, value: vg -->
<g id="edge8" class="edge">
<title>type: function_signature, id: 6&#45;&gt;type: identifier, id: 5, value: vg</title>
<path fill="none" stroke="black" d="M612.77,-432.23C637.62,-422.35 669.23,-409.78 695.49,-399.33"/>
<polygon fill="black" stroke="black" points="696.61,-402.66 704.61,-395.71 694.02,-396.15 696.61,-402.66"/>
</g>
<!-- type: common, id: 3, name: list_item -->
<g id="node6" class="node">
<title>type: common, id: 3, name: list_item</title>
<polygon fill="pink" stroke="black" points="471.46,-288.05 481.29,-288.15 491.01,-288.3 500.6,-288.49 510.01,-288.74 519.19,-289.03 528.13,-289.36 536.77,-289.75 545.09,-290.18 553.06,-290.65 560.65,-291.16 567.83,-291.71 574.58,-292.31 580.88,-292.94 586.7,-293.61 592.04,-294.31 596.88,-295.04 601.2,-295.8 605,-296.59 608.29,-297.41 611.04,-298.25 613.27,-299.11 614.98,-299.99 616.17,-300.89 616.85,-301.8 617.04,-302.72 616.73,-303.65 615.96,-304.59 614.73,-305.53 613.05,-306.47 610.96,-307.41 608.46,-308.35 605.58,-309.28 602.34,-310.2 598.76,-311.11 594.86,-312.01 590.66,-312.89 586.19,-313.75 581.47,-314.59 576.51,-315.41 571.35,-316.2 565.99,-316.96 560.46,-317.69 554.77,-318.39 548.94,-319.06 543,-319.69 536.95,-320.29 530.8,-320.84 524.57,-321.35 518.28,-321.82 511.92,-322.25 505.51,-322.64 499.07,-322.97 492.59,-323.26 486.08,-323.51 479.55,-323.7 473.01,-323.85 466.46,-323.95 459.9,-324 453.33,-324 446.77,-323.95 440.22,-323.85 433.67,-323.7 427.14,-323.51 420.64,-323.26 414.16,-322.97 407.71,-322.64 401.31,-322.25 394.95,-321.82 388.66,-321.35 382.43,-320.84 376.28,-320.29 370.23,-319.69 364.28,-319.06 358.46,-318.39 352.77,-317.69 347.24,-316.96 341.88,-316.2 336.71,-315.41 331.76,-314.59 327.04,-313.75 322.57,-312.89 318.37,-312.01 314.47,-311.11 310.89,-310.2 307.65,-309.28 304.77,-308.35 302.27,-307.41 300.18,-306.47 298.5,-305.53 297.27,-304.59 296.49,-303.65 296.19,-302.72 296.37,-301.8 297.06,-300.89 298.25,-299.99 299.95,-299.11 302.19,-298.25 304.94,-297.41 308.22,-296.59 312.03,-295.8 316.35,-295.04 321.19,-294.31 326.52,-293.61 332.35,-292.94 338.64,-292.31 345.39,-291.71 352.57,-291.16 360.16,-290.65 368.13,-290.18 376.46,-289.75 385.1,-289.36 394.03,-289.03 403.22,-288.74 412.63,-288.49 422.21,-288.3 431.94,-288.15 441.77,-288.05 451.66,-288 461.57,-288 471.46,-288.05"/>
<text text-anchor="middle" x="456.61" y="-300.95" font-family="Times,serif" font-size="14.00">type: common, id: 3, name: list_item</text>
</g>
<!-- type: common, id: 4, name: list&#45;&gt;type: common, id: 3, name: list_item -->
<g id="edge5" class="edge">
<title>type: common, id: 4, name: list&#45;&gt;type: common, id: 3, name: list_item</title>
<path fill="none" stroke="black" d="M456.61,-359.7C456.61,-352.41 456.61,-343.73 456.61,-335.54"/>
<polygon fill="black" stroke="black" points="460.11,-335.62 456.61,-325.62 453.11,-335.62 460.11,-335.62"/>
</g>
<!-- type: identifier, id: 1, value: q -->
<g id="node7" class="node">
<title>type: identifier, id: 1, value: q</title>
<polygon fill="pink" stroke="black" points="324.63,-216.05 332.59,-216.15 340.47,-216.3 348.23,-216.49 355.85,-216.74 363.29,-217.03 370.52,-217.36 377.52,-217.75 384.26,-218.18 390.71,-218.65 396.86,-219.16 402.67,-219.71 408.14,-220.31 413.24,-220.94 417.95,-221.61 422.27,-222.31 426.19,-223.04 429.69,-223.8 432.77,-224.59 435.43,-225.41 437.66,-226.25 439.47,-227.11 440.85,-227.99 441.81,-228.89 442.37,-229.8 442.52,-230.72 442.27,-231.65 441.64,-232.59 440.64,-233.53 439.29,-234.47 437.59,-235.41 435.57,-236.35 433.24,-237.28 430.61,-238.2 427.71,-239.11 424.55,-240.01 421.16,-240.89 417.54,-241.75 413.71,-242.59 409.7,-243.41 405.52,-244.2 401.18,-244.96 396.7,-245.69 392.09,-246.39 387.38,-247.06 382.56,-247.69 377.66,-248.29 372.68,-248.84 367.64,-249.35 362.54,-249.82 357.4,-250.25 352.21,-250.64 346.99,-250.97 341.74,-251.26 336.48,-251.51 331.19,-251.7 325.89,-251.85 320.58,-251.95 315.27,-252 309.96,-252 304.64,-251.95 299.34,-251.85 294.04,-251.7 288.75,-251.51 283.48,-251.26 278.24,-250.97 273.02,-250.64 267.83,-250.25 262.68,-249.82 257.59,-249.35 252.54,-248.84 247.57,-248.29 242.66,-247.69 237.85,-247.06 233.13,-246.39 228.53,-245.69 224.05,-244.96 219.71,-244.2 215.53,-243.41 211.51,-242.59 207.69,-241.75 204.07,-240.89 200.67,-240.01 197.52,-239.11 194.62,-238.2 191.99,-237.28 189.66,-236.35 187.64,-235.41 185.94,-234.47 184.58,-233.53 183.59,-232.59 182.96,-231.65 182.71,-230.72 182.86,-229.8 183.41,-228.89 184.38,-227.99 185.76,-227.11 187.57,-226.25 189.8,-225.41 192.46,-224.59 195.54,-223.8 199.04,-223.04 202.95,-222.31 207.28,-221.61 211.99,-220.94 217.09,-220.31 222.55,-219.71 228.37,-219.16 234.51,-218.65 240.97,-218.18 247.71,-217.75 254.71,-217.36 261.94,-217.03 269.38,-216.74 277,-216.49 284.76,-216.3 292.63,-216.15 300.59,-216.05 308.6,-216 316.63,-216 324.63,-216.05"/>
<text text-anchor="middle" x="312.61" y="-228.95" font-family="Times,serif" font-size="14.00">type: identifier, id: 1, value: q</text>
</g>
<!-- type: common, id: 3, name: list_item&#45;&gt;type: identifier, id: 1, value: q -->
<g id="edge6" class="edge">
<title>type: common, id: 3, name: list_item&#45;&gt;type: identifier, id: 1, value: q</title>
<path fill="none" stroke="black" d="M421.39,-287.88C401.87,-278.39 377.43,-266.51 356.66,-256.41"/>
<polygon fill="black" stroke="black" points="358.37,-253.35 347.85,-252.13 355.31,-259.65 358.37,-253.35"/>
</g>
<!-- type: type, id: 2, name: int -->
<g id="node8" class="node">
<title>type: type, id: 2, name: int</title>
<polygon fill="pink" stroke="black" points="588.47,-216.05 595.66,-216.15 602.78,-216.3 609.79,-216.49 616.68,-216.74 623.4,-217.03 629.93,-217.36 636.26,-217.75 642.35,-218.18 648.18,-218.65 653.73,-219.16 658.98,-219.71 663.92,-220.31 668.53,-220.94 672.79,-221.61 676.69,-222.31 680.23,-223.04 683.39,-223.8 686.18,-224.59 688.58,-225.41 690.59,-226.25 692.22,-227.11 693.47,-227.99 694.35,-228.89 694.85,-229.8 694.98,-230.72 694.76,-231.65 694.19,-232.59 693.29,-233.53 692.06,-234.47 690.53,-235.41 688.7,-236.35 686.6,-237.28 684.22,-238.2 681.6,-239.11 678.75,-240.01 675.68,-240.89 672.41,-241.75 668.96,-242.59 665.33,-243.41 661.55,-244.2 657.63,-244.96 653.58,-245.69 649.42,-246.39 645.16,-247.06 640.81,-247.69 636.38,-248.29 631.89,-248.84 627.33,-249.35 622.72,-249.82 618.08,-250.25 613.39,-250.64 608.67,-250.97 603.93,-251.26 599.17,-251.51 594.4,-251.7 589.61,-251.85 584.81,-251.95 580.01,-252 575.21,-252 570.41,-251.95 565.62,-251.85 560.83,-251.7 556.05,-251.51 551.29,-251.26 546.55,-250.97 541.84,-250.64 537.15,-250.25 532.5,-249.82 527.9,-249.35 523.34,-248.84 518.84,-248.29 514.41,-247.69 510.06,-247.06 505.8,-246.39 501.64,-245.69 497.6,-244.96 493.68,-244.2 489.9,-243.41 486.27,-242.59 482.82,-241.75 479.55,-240.89 476.48,-240.01 473.62,-239.11 471,-238.2 468.63,-237.28 466.52,-236.35 464.7,-235.41 463.16,-234.47 461.94,-233.53 461.04,-232.59 460.47,-231.65 460.25,-230.72 460.38,-229.8 460.88,-228.89 461.75,-227.99 463,-227.11 464.63,-226.25 466.65,-225.41 469.05,-224.59 471.84,-223.8 475,-223.04 478.54,-222.31 482.44,-221.61 486.7,-220.94 491.31,-220.31 496.25,-219.71 501.5,-219.16 507.05,-218.65 512.88,-218.18 518.97,-217.75 525.29,-217.36 531.83,-217.03 538.55,-216.74 545.43,-216.49 552.45,-216.3 559.56,-216.15 566.75,-216.05 573.99,-216 581.24,-216 588.47,-216.05"/>
<text text-anchor="middle" x="577.61" y="-228.95" font-family="Times,serif" font-size="14.00">type: type, id: 2, name: int</text>
</g>
<!-- type: common, id: 3, name: list_item&#45;&gt;type: type, id: 2, name: int -->
<g id="edge7" class="edge">
<title>type: common, id: 3, name: list_item&#45;&gt;type: type, id: 2, name: int</title>
<path fill="none" stroke="black" d="M486.21,-287.88C502.24,-278.61 522.22,-267.05 539.41,-257.1"/>
<polygon fill="black" stroke="black" points="540.94,-260.26 547.84,-252.22 537.43,-254.2 540.94,-260.26"/>
</g>
<!-- type: block, id: 20 -->
<g id="node11" class="node">
<title>type: block, id: 20</title>
<polygon fill="pink" stroke="black" points="991.4,-360.05 996.55,-360.15 1001.65,-360.3 1006.68,-360.49 1011.61,-360.74 1016.43,-361.03 1021.11,-361.36 1025.64,-361.75 1030.01,-362.18 1034.19,-362.65 1038.17,-363.16 1041.93,-363.71 1045.47,-364.31 1048.77,-364.94 1051.83,-365.61 1054.62,-366.31 1057.16,-367.04 1059.43,-367.8 1061.42,-368.59 1063.14,-369.41 1064.59,-370.25 1065.76,-371.11 1066.65,-371.99 1067.28,-372.89 1067.64,-373.8 1067.73,-374.72 1067.57,-375.65 1067.17,-376.59 1066.52,-377.53 1065.64,-378.47 1064.54,-379.41 1063.23,-380.35 1061.72,-381.28 1060.02,-382.2 1058.15,-383.11 1056.1,-384.01 1053.9,-384.89 1051.56,-385.75 1049.08,-386.59 1046.48,-387.41 1043.77,-388.2 1040.96,-388.96 1038.06,-389.69 1035.08,-390.39 1032.03,-391.06 1028.91,-391.69 1025.74,-392.29 1022.51,-392.84 1019.25,-393.35 1015.95,-393.82 1012.61,-394.25 1009.25,-394.64 1005.88,-394.97 1002.48,-395.26 999.07,-395.51 995.64,-395.7 992.21,-395.85 988.77,-395.95 985.33,-396 981.89,-396 978.45,-395.95 975.02,-395.85 971.58,-395.7 968.16,-395.51 964.75,-395.26 961.35,-394.97 957.97,-394.64 954.61,-394.25 951.28,-393.82 947.98,-393.35 944.71,-392.84 941.49,-392.29 938.32,-391.69 935.2,-391.06 932.15,-390.39 929.16,-389.69 926.26,-388.96 923.45,-388.2 920.74,-387.41 918.15,-386.59 915.67,-385.75 913.33,-384.89 911.13,-384.01 909.08,-383.11 907.2,-382.2 905.5,-381.28 903.99,-380.35 902.68,-379.41 901.59,-378.47 900.71,-377.53 900.06,-376.59 899.65,-375.65 899.5,-374.72 899.59,-373.8 899.95,-372.89 900.57,-371.99 901.47,-371.11 902.64,-370.25 904.08,-369.41 905.8,-368.59 907.8,-367.8 910.07,-367.04 912.6,-366.31 915.4,-365.61 918.46,-364.94 921.76,-364.31 925.3,-363.71 929.06,-363.16 933.04,-362.65 937.22,-362.18 941.58,-361.75 946.12,-361.36 950.8,-361.03 955.62,-360.74 960.55,-360.49 965.58,-360.3 970.68,-360.15 975.83,-360.05 981.02,-360 986.21,-360 991.4,-360.05"/>
<text text-anchor="middle" x="983.61" y="-372.95" font-family="Times,serif" font-size="14.00">type: block, id: 20</text>
</g>
<!-- type: common, id: 21, name: body&#45;&gt;type: block, id: 20 -->
<g id="edge10" class="edge">
<title>type: common, id: 21, name: body&#45;&gt;type: block, id: 20</title>
<path fill="none" stroke="black" d="M983.61,-431.7C983.61,-424.41 983.61,-415.73 983.61,-407.54"/>
<polygon fill="black" stroke="black" points="987.11,-407.62 983.61,-397.62 980.11,-407.62 987.11,-407.62"/>
</g>
<!-- type: common, id: 11, name: body_var -->
<g id="node20" class="node">
<title>type: common, id: 11, name: body_var</title>
<polygon fill="pink" stroke="black" points="1317.11,-360.05 1327.38,-360.15 1337.53,-360.3 1347.54,-360.49 1357.36,-360.74 1366.96,-361.03 1376.29,-361.36 1385.31,-361.75 1394,-362.18 1402.32,-362.65 1410.25,-363.16 1417.75,-363.71 1424.79,-364.31 1431.37,-364.94 1437.45,-365.61 1443.02,-366.31 1448.07,-367.04 1452.59,-367.8 1456.56,-368.59 1459.99,-369.41 1462.86,-370.25 1465.19,-371.11 1466.98,-371.99 1468.22,-372.89 1468.93,-373.8 1469.12,-374.72 1468.81,-375.65 1468,-376.59 1466.71,-377.53 1464.96,-378.47 1462.77,-379.41 1460.17,-380.35 1457.16,-381.28 1453.77,-382.2 1450.03,-383.11 1445.96,-384.01 1441.58,-384.89 1436.91,-385.75 1431.98,-386.59 1426.81,-387.41 1421.41,-388.2 1415.82,-388.96 1410.04,-389.69 1404.1,-390.39 1398.02,-391.06 1391.81,-391.69 1385.49,-392.29 1379.08,-392.84 1372.57,-393.35 1366,-393.82 1359.36,-394.25 1352.67,-394.64 1345.94,-394.97 1339.18,-395.26 1332.38,-395.51 1325.57,-395.7 1318.74,-395.85 1311.89,-395.95 1305.04,-396 1298.19,-396 1291.34,-395.95 1284.49,-395.85 1277.66,-395.7 1270.84,-395.51 1264.05,-395.26 1257.28,-394.97 1250.55,-394.64 1243.86,-394.25 1237.23,-393.82 1230.65,-393.35 1224.15,-392.84 1217.73,-392.29 1211.41,-391.69 1205.2,-391.06 1199.12,-390.39 1193.19,-389.69 1187.41,-388.96 1181.81,-388.2 1176.42,-387.41 1171.25,-386.59 1166.31,-385.75 1161.65,-384.89 1157.27,-384.01 1153.19,-383.11 1149.45,-382.2 1146.07,-381.28 1143.06,-380.35 1140.45,-379.41 1138.27,-378.47 1136.52,-377.53 1135.23,-376.59 1134.42,-375.65 1134.1,-374.72 1134.3,-373.8 1135.01,-372.89 1136.25,-371.99 1138.04,-371.11 1140.36,-370.25 1143.24,-369.41 1146.67,-368.59 1150.64,-367.8 1155.16,-367.04 1160.21,-366.31 1165.78,-365.61 1171.86,-364.94 1178.43,-364.31 1185.48,-363.71 1192.98,-363.16 1200.9,-362.65 1209.23,-362.18 1217.92,-361.75 1226.94,-361.36 1236.27,-361.03 1245.86,-360.74 1255.68,-360.49 1265.69,-360.3 1275.85,-360.15 1286.11,-360.05 1296.44,-360 1306.79,-360 1317.11,-360.05"/>
<text text-anchor="middle" x="1301.61" y="-372.95" font-family="Times,serif" font-size="14.00">type: common, id: 11, name: body_var</text>
</g>
<!-- type: common, id: 21, name: body&#45;&gt;type: common, id: 11, name: body_var -->
<g id="edge19" class="edge">
<title>type: common, id: 21, name: body&#45;&gt;type: common, id: 11, name: body_var</title>
<path fill="none" stroke="black" d="M1055.77,-433.12C1105.37,-422.2 1171.22,-407.7 1222.29,-396.46"/>
<polygon fill="black" stroke="black" points="1222.79,-399.94 1231.8,-394.37 1221.28,-393.1 1222.79,-399.94"/>
</g>
<!-- type: common, id: 19, name: block_item -->
<g id="node12" class="node">
<title>type: common, id: 19, name: block_item</title>
<polygon fill="pink" stroke="black" points="975.82,-288.05 986.55,-288.15 997.17,-288.3 1007.64,-288.49 1017.9,-288.74 1027.93,-289.03 1037.69,-289.36 1047.12,-289.75 1056.21,-290.18 1064.91,-290.65 1073.2,-291.16 1081.04,-291.71 1088.4,-292.31 1095.28,-292.94 1101.64,-293.61 1107.46,-294.31 1112.74,-295.04 1117.46,-295.8 1121.62,-296.59 1125.2,-297.41 1128.21,-298.25 1130.64,-299.11 1132.51,-299.99 1133.81,-300.89 1134.55,-301.8 1134.75,-302.72 1134.42,-303.65 1133.58,-304.59 1132.23,-305.53 1130.4,-306.47 1128.11,-307.41 1125.39,-308.35 1122.24,-309.28 1118.7,-310.2 1114.79,-311.11 1110.54,-312.01 1105.96,-312.89 1101.08,-313.75 1095.92,-314.59 1090.51,-315.41 1084.87,-316.2 1079.02,-316.96 1072.98,-317.69 1066.77,-318.39 1060.41,-319.06 1053.92,-319.69 1047.31,-320.29 1040.6,-320.84 1033.81,-321.35 1026.93,-321.82 1019.99,-322.25 1013,-322.64 1005.96,-322.97 998.89,-323.26 991.79,-323.51 984.66,-323.7 977.52,-323.85 970.36,-323.95 963.2,-324 956.03,-324 948.87,-323.95 941.71,-323.85 934.57,-323.7 927.44,-323.51 920.34,-323.26 913.26,-322.97 906.23,-322.64 899.23,-322.25 892.3,-321.82 885.42,-321.35 878.62,-320.84 871.91,-320.29 865.3,-319.69 858.81,-319.06 852.45,-318.39 846.25,-317.69 840.21,-316.96 834.36,-316.2 828.72,-315.41 823.31,-314.59 818.15,-313.75 813.27,-312.89 808.69,-312.01 804.43,-311.11 800.52,-310.2 796.98,-309.28 793.84,-308.35 791.11,-307.41 788.82,-306.47 787,-305.53 785.65,-304.59 784.8,-303.65 784.47,-302.72 784.67,-301.8 785.42,-300.89 786.72,-299.99 788.58,-299.11 791.02,-298.25 794.03,-297.41 797.61,-296.59 801.76,-295.8 806.49,-295.04 811.76,-294.31 817.59,-293.61 823.95,-292.94 830.82,-292.31 838.19,-291.71 846.03,-291.16 854.32,-290.65 863.02,-290.18 872.1,-289.75 881.54,-289.36 891.29,-289.03 901.32,-288.74 911.59,-288.49 922.06,-288.3 932.68,-288.15 943.41,-288.05 954.2,-288 965.02,-288 975.82,-288.05"/>
<text text-anchor="middle" x="959.61" y="-300.95" font-family="Times,serif" font-size="14.00">type: common, id: 19, name: block_item</text>
</g>
<!-- type: block, id: 20&#45;&gt;type: common, id: 19, name: block_item -->
<g id="edge11" class="edge">
<title>type: block, id: 20&#45;&gt;type: common, id: 19, name: block_item</title>
<path fill="none" stroke="black" d="M977.68,-359.7C975.12,-352.24 972.07,-343.32 969.2,-334.97"/>
<polygon fill="black" stroke="black" points="972.52,-333.86 965.97,-325.54 965.9,-336.13 972.52,-333.86"/>
</g>
<!-- type: assign, id: 18, oper_name: ASSIGMENT -->
<g id="node13" class="node">
<title>type: assign, id: 18, oper_name: ASSIGMENT</title>
<polygon fill="pink" stroke="black" points="977.94,-216.05 990.07,-216.15 1002.08,-216.3 1013.91,-216.49 1025.52,-216.74 1036.86,-217.03 1047.89,-217.36 1058.56,-217.75 1068.84,-218.18 1078.67,-218.65 1088.04,-219.16 1096.91,-219.71 1105.24,-220.31 1113.01,-220.94 1120.2,-221.61 1126.79,-222.31 1132.76,-223.04 1138.09,-223.8 1142.79,-224.59 1146.84,-225.41 1150.24,-226.25 1153,-227.11 1155.11,-227.99 1156.58,-228.89 1157.42,-229.8 1157.65,-230.72 1157.27,-231.65 1156.31,-232.59 1154.79,-233.53 1152.73,-234.47 1150.14,-235.41 1147.06,-236.35 1143.5,-237.28 1139.5,-238.2 1135.08,-239.11 1130.26,-240.01 1125.09,-240.89 1119.57,-241.75 1113.74,-242.59 1107.62,-243.41 1101.24,-244.2 1094.63,-244.96 1087.8,-245.69 1080.78,-246.39 1073.59,-247.06 1066.25,-247.69 1058.78,-248.29 1051.19,-248.84 1043.5,-249.35 1035.73,-249.82 1027.89,-250.25 1019.98,-250.64 1012.02,-250.97 1004.02,-251.26 995.99,-251.51 987.93,-251.7 979.85,-251.85 971.76,-251.95 963.66,-252 955.56,-252 947.46,-251.95 939.37,-251.85 931.29,-251.7 923.24,-251.51 915.2,-251.26 907.21,-250.97 899.25,-250.64 891.34,-250.25 883.5,-249.82 875.72,-249.35 868.04,-248.84 860.45,-248.29 852.98,-247.69 845.64,-247.06 838.45,-246.39 831.43,-245.69 824.6,-244.96 817.99,-244.2 811.61,-243.41 805.49,-242.59 799.66,-241.75 794.14,-240.89 788.96,-240.01 784.15,-239.11 779.73,-238.2 775.73,-237.28 772.17,-236.35 769.09,-235.41 766.5,-234.47 764.44,-233.53 762.91,-232.59 761.96,-231.65 761.58,-230.72 761.81,-229.8 762.65,-228.89 764.12,-227.99 766.23,-227.11 768.98,-226.25 772.38,-225.41 776.44,-224.59 781.13,-223.8 786.47,-223.04 792.44,-222.31 799.03,-221.61 806.22,-220.94 813.99,-220.31 822.32,-219.71 831.18,-219.16 840.55,-218.65 850.39,-218.18 860.66,-217.75 871.34,-217.36 882.36,-217.03 893.7,-216.74 905.32,-216.49 917.15,-216.3 929.16,-216.15 941.29,-216.05 953.5,-216 965.73,-216 977.94,-216.05"/>
<text text-anchor="middle" x="959.61" y="-228.95" font-family="Times,serif" font-size="14.00">type: assign, id: 18, oper_name: ASSIGMENT</text>
</g>
<!-- type: common, id: 19, name: block_item&#45;&gt;type: assign, id: 18, oper_name: ASSIGMENT -->
<g id="edge12" class="edge">
<title>type: common, id: 19, name: block_item&#45;&gt;type: assign, id: 18, oper_name: ASSIGMENT</title>
<path fill="none" stroke="black" d="M959.61,-287.7C959.61,-280.41 959.61,-271.73 959.61,-263.54"/>
<polygon fill="black" stroke="black" points="963.11,-263.62 959.61,-253.62 956.11,-263.62 963.11,-263.62"/>
</g>
<!-- type: identifier, id: 12, value: a -->
<g id="node14" class="node">
<title>type: identifier, id: 12, value: a</title>
<polygon fill="pink" stroke="black" points="619.04,-144.05 627.26,-144.15 635.4,-144.3 643.43,-144.49 651.3,-144.74 658.99,-145.03 666.46,-145.36 673.7,-145.75 680.66,-146.18 687.33,-146.65 693.69,-147.16 699.7,-147.71 705.34,-148.31 710.61,-148.94 715.49,-149.61 719.95,-150.31 724,-151.04 727.62,-151.8 730.81,-152.59 733.55,-153.41 735.86,-154.25 737.72,-155.11 739.15,-155.99 740.15,-156.89 740.72,-157.8 740.88,-158.72 740.62,-159.65 739.97,-160.59 738.94,-161.53 737.54,-162.47 735.79,-163.41 733.7,-164.35 731.28,-165.28 728.57,-166.2 725.57,-167.11 722.31,-168.01 718.8,-168.89 715.06,-169.75 711.11,-170.59 706.96,-171.41 702.64,-172.2 698.15,-172.96 693.52,-173.69 688.76,-174.39 683.89,-175.06 678.91,-175.69 673.84,-176.29 668.7,-176.84 663.49,-177.35 658.22,-177.82 652.9,-178.25 647.54,-178.64 642.15,-178.97 636.72,-179.26 631.28,-179.51 625.81,-179.7 620.34,-179.85 614.85,-179.95 609.36,-180 603.87,-180 598.38,-179.95 592.89,-179.85 587.41,-179.7 581.95,-179.51 576.5,-179.26 571.08,-178.97 565.69,-178.64 560.33,-178.25 555.01,-177.82 549.74,-177.35 544.53,-176.84 539.38,-176.29 534.32,-175.69 529.34,-175.06 524.47,-174.39 519.71,-173.69 515.08,-172.96 510.59,-172.2 506.27,-171.41 502.12,-170.59 498.17,-169.75 494.43,-168.89 490.92,-168.01 487.65,-167.11 484.66,-166.2 481.94,-165.28 479.53,-164.35 477.44,-163.41 475.69,-162.47 474.29,-161.53 473.25,-160.59 472.61,-159.65 472.35,-158.72 472.5,-157.8 473.08,-156.89 474.07,-155.99 475.5,-155.11 477.37,-154.25 479.68,-153.41 482.42,-152.59 485.61,-151.8 489.23,-151.04 493.27,-150.31 497.74,-149.61 502.61,-148.94 507.88,-148.31 513.53,-147.71 519.54,-147.16 525.89,-146.65 532.56,-146.18 539.53,-145.75 546.76,-145.36 554.24,-145.03 561.93,-144.74 569.8,-144.49 577.82,-144.3 585.96,-144.15 594.19,-144.05 602.47,-144 610.76,-144 619.04,-144.05"/>
<text text-anchor="middle" x="606.61" y="-156.95" font-family="Times,serif" font-size="14.00">type: identifier, id: 12, value: a</text>
</g>
<!-- type: assign, id: 18, oper_name: ASSIGMENT&#45;&gt;type: identifier, id: 12, value: a -->
<g id="edge13" class="edge">
<title>type: assign, id: 18, oper_name: ASSIGMENT&#45;&gt;type: identifier, id: 12, value: a</title>
<path fill="none" stroke="black" d="M877.74,-216.76C820.17,-205.35 743.53,-190.15 686.43,-178.83"/>
<polygon fill="black" stroke="black" points="687.25,-175.42 676.76,-176.91 685.89,-182.29 687.25,-175.42"/>
</g>
<!-- type: expression, id: 17, oper_name: BIN_PLUS -->
<g id="node15" class="node">
<title>type: expression, id: 17, oper_name: BIN_PLUS</title>
<polygon fill="pink" stroke="black" points="982.59,-144.05 995.16,-144.15 1007.6,-144.3 1019.85,-144.49 1031.88,-144.74 1043.63,-145.03 1055.05,-145.36 1066.1,-145.75 1076.74,-146.18 1086.93,-146.65 1096.64,-147.16 1105.82,-147.71 1114.45,-148.31 1122.5,-148.94 1129.95,-149.61 1136.77,-150.31 1142.95,-151.04 1148.48,-151.8 1153.35,-152.59 1157.54,-153.41 1161.07,-154.25 1163.92,-155.11 1166.1,-155.99 1167.62,-156.89 1168.5,-157.8 1168.73,-158.72 1168.34,-159.65 1167.35,-160.59 1165.77,-161.53 1163.63,-162.47 1160.96,-163.41 1157.76,-164.35 1154.08,-165.28 1149.93,-166.2 1145.36,-167.11 1140.37,-168.01 1135.01,-168.89 1129.29,-169.75 1123.25,-170.59 1116.92,-171.41 1110.31,-172.2 1103.46,-172.96 1096.39,-173.69 1089.11,-174.39 1081.67,-175.06 1074.06,-175.69 1066.33,-176.29 1058.47,-176.84 1050.5,-177.35 1042.45,-177.82 1034.33,-178.25 1026.14,-178.64 1017.9,-178.97 1009.61,-179.26 1001.29,-179.51 992.95,-179.7 984.58,-179.85 976.2,-179.95 967.81,-180 959.42,-180 951.03,-179.95 942.65,-179.85 934.28,-179.7 925.93,-179.51 917.62,-179.26 909.33,-178.97 901.09,-178.64 892.9,-178.25 884.77,-177.82 876.72,-177.35 868.76,-176.84 860.9,-176.29 853.16,-175.69 845.56,-175.06 838.11,-174.39 830.84,-173.69 823.77,-172.96 816.92,-172.2 810.31,-171.41 803.98,-170.59 797.94,-169.75 792.22,-168.89 786.86,-168.01 781.87,-167.11 777.29,-166.2 773.15,-165.28 769.47,-164.35 766.27,-163.41 763.59,-162.47 761.45,-161.53 759.88,-160.59 758.88,-159.65 758.5,-158.72 758.73,-157.8 759.6,-156.89 761.13,-155.99 763.31,-155.11 766.16,-154.25 769.69,-153.41 773.88,-152.59 778.75,-151.8 784.28,-151.04 790.46,-150.31 797.28,-149.61 804.73,-148.94 812.78,-148.31 821.41,-147.71 830.59,-147.16 840.29,-146.65 850.48,-146.18 861.12,-145.75 872.18,-145.36 883.6,-145.03 895.35,-144.74 907.37,-144.49 919.63,-144.3 932.07,-144.15 944.63,-144.05 957.28,-144 969.95,-144 982.59,-144.05"/>
<text text-anchor="middle" x="963.61" y="-156.95" font-family="Times,serif" font-size="14.00">type: expression, id: 17, oper_name: BIN_PLUS</text>
</g>
<!-- type: assign, id: 18, oper_name: ASSIGMENT&#45;&gt;type: expression, id: 17, oper_name: BIN_PLUS -->
<g id="edge14" class="edge">
<title>type: assign, id: 18, oper_name: ASSIGMENT&#45;&gt;type: expression, id: 17, oper_name: BIN_PLUS</title>
<path fill="none" stroke="black" d="M960.6,-215.7C961.02,-208.41 961.51,-199.73 961.98,-191.54"/>
<polygon fill="black" stroke="black" points="965.47,-191.8 962.55,-181.62 958.49,-191.4 965.47,-191.8"/>
</g>
<!-- type: expression, id: 15, oper_name: BIN_PLUS -->
<g id="node16" class="node">
<title>type: expression, id: 15, oper_name: BIN_PLUS</title>
<polygon fill="pink" stroke="black" points="773.59,-72.05 786.16,-72.15 798.6,-72.3 810.85,-72.49 822.88,-72.74 834.63,-73.03 846.05,-73.36 857.1,-73.75 867.74,-74.18 877.93,-74.65 887.64,-75.16 896.82,-75.71 905.45,-76.31 913.5,-76.94 920.95,-77.61 927.77,-78.31 933.95,-79.04 939.48,-79.8 944.35,-80.59 948.54,-81.41 952.07,-82.25 954.92,-83.11 957.1,-83.99 958.62,-84.89 959.5,-85.8 959.73,-86.72 959.34,-87.65 958.35,-88.59 956.77,-89.53 954.63,-90.47 951.96,-91.41 948.76,-92.35 945.08,-93.28 940.93,-94.2 936.36,-95.11 931.37,-96.01 926.01,-96.89 920.29,-97.75 914.25,-98.59 907.92,-99.41 901.31,-100.2 894.46,-100.96 887.39,-101.69 880.11,-102.39 872.67,-103.06 865.06,-103.69 857.33,-104.29 849.47,-104.84 841.5,-105.35 833.45,-105.82 825.33,-106.25 817.14,-106.64 808.9,-106.97 800.61,-107.26 792.29,-107.51 783.95,-107.7 775.58,-107.85 767.2,-107.95 758.81,-108 750.42,-108 742.03,-107.95 733.65,-107.85 725.28,-107.7 716.93,-107.51 708.62,-107.26 700.33,-106.97 692.09,-106.64 683.9,-106.25 675.77,-105.82 667.72,-105.35 659.76,-104.84 651.9,-104.29 644.16,-103.69 636.56,-103.06 629.11,-102.39 621.84,-101.69 614.77,-100.96 607.92,-100.2 601.31,-99.41 594.98,-98.59 588.94,-97.75 583.22,-96.89 577.86,-96.01 572.87,-95.11 568.29,-94.2 564.15,-93.28 560.47,-92.35 557.27,-91.41 554.59,-90.47 552.45,-89.53 550.88,-88.59 549.88,-87.65 549.5,-86.72 549.73,-85.8 550.6,-84.89 552.13,-83.99 554.31,-83.11 557.16,-82.25 560.69,-81.41 564.88,-80.59 569.75,-79.8 575.28,-79.04 581.46,-78.31 588.28,-77.61 595.73,-76.94 603.78,-76.31 612.41,-75.71 621.59,-75.16 631.29,-74.65 641.48,-74.18 652.12,-73.75 663.18,-73.36 674.6,-73.03 686.35,-72.74 698.37,-72.49 710.63,-72.3 723.07,-72.15 735.63,-72.05 748.28,-72 760.95,-72 773.59,-72.05"/>
<text text-anchor="middle" x="754.61" y="-84.95" font-family="Times,serif" font-size="14.00">type: expression, id: 15, oper_name: BIN_PLUS</text>
</g>
<!-- type: expression, id: 17, oper_name: BIN_PLUS&#45;&gt;type: expression, id: 15, oper_name: BIN_PLUS -->
<g id="edge15" class="edge">
<title>type: expression, id: 17, oper_name: BIN_PLUS&#45;&gt;type: expression, id: 15, oper_name: BIN_PLUS</title>
<path fill="none" stroke="black" d="M912.75,-143.97C883.25,-134.08 845.91,-121.58 814.93,-111.2"/>
<polygon fill="black" stroke="black" points="816.29,-107.96 805.69,-108.11 814.06,-114.6 816.29,-107.96"/>
</g>
<!-- type: value, id: 16, type_name: DEC, value: 6 -->
<g id="node19" class="node">
<title>type: value, id: 16, type_name: DEC, value: 6</title>
<polygon fill="pink" stroke="black" points="1190.64,-72.05 1202.57,-72.15 1214.38,-72.3 1226.02,-72.49 1237.43,-72.74 1248.59,-73.03 1259.43,-73.36 1269.93,-73.75 1280.03,-74.18 1289.71,-74.65 1298.92,-75.16 1307.64,-75.71 1315.83,-76.31 1323.48,-76.94 1330.55,-77.61 1337.03,-78.31 1342.9,-79.04 1348.15,-79.8 1352.77,-80.59 1356.75,-81.41 1360.1,-82.25 1362.8,-83.11 1364.88,-83.99 1366.32,-84.89 1367.15,-85.8 1367.38,-86.72 1367.01,-87.65 1366.07,-88.59 1364.57,-89.53 1362.54,-90.47 1359.99,-91.41 1356.96,-92.35 1353.46,-93.28 1349.53,-94.2 1345.18,-95.11 1340.45,-96.01 1335.35,-96.89 1329.93,-97.75 1324.19,-98.59 1318.18,-99.41 1311.9,-100.2 1305.4,-100.96 1298.68,-101.69 1291.78,-102.39 1284.71,-103.06 1277.49,-103.69 1270.14,-104.29 1262.68,-104.84 1255.12,-105.35 1247.47,-105.82 1239.76,-106.25 1231.98,-106.64 1224.16,-106.97 1216.29,-107.26 1208.39,-107.51 1200.46,-107.7 1192.52,-107.85 1184.56,-107.95 1176.6,-108 1168.63,-108 1160.66,-107.95 1152.71,-107.85 1144.76,-107.7 1136.84,-107.51 1128.94,-107.26 1121.07,-106.97 1113.25,-106.64 1105.47,-106.25 1097.75,-105.82 1090.11,-105.35 1082.55,-104.84 1075.09,-104.29 1067.74,-103.69 1060.52,-103.06 1053.45,-102.39 1046.55,-101.69 1039.83,-100.96 1033.32,-100.2 1027.05,-99.41 1021.04,-98.59 1015.3,-97.75 1009.87,-96.89 1004.78,-96.01 1000.05,-95.11 995.7,-94.2 991.76,-93.28 988.27,-92.35 985.23,-91.41 982.69,-90.47 980.66,-89.53 979.16,-88.59 978.22,-87.65 977.85,-86.72 978.07,-85.8 978.9,-84.89 980.35,-83.99 982.42,-83.11 985.13,-82.25 988.48,-81.41 992.46,-80.59 997.08,-79.8 1002.33,-79.04 1008.2,-78.31 1014.68,-77.61 1021.75,-76.94 1029.39,-76.31 1037.59,-75.71 1046.31,-75.16 1055.52,-74.65 1065.19,-74.18 1075.3,-73.75 1085.79,-73.36 1096.64,-73.03 1107.79,-72.74 1119.21,-72.49 1130.85,-72.3 1142.66,-72.15 1154.59,-72.05 1166.6,-72 1178.63,-72 1190.64,-72.05"/>
<text text-anchor="middle" x="1172.61" y="-84.95" font-family="Times,serif" font-size="14.00">type: value, id: 16, type_name: DEC, value: 6</text>
</g>
<!-- type: expression, id: 17, oper_name: BIN_PLUS&#45;&gt;type: value, id: 16, type_name: DEC, value: 6 -->
<g id="edge18" class="edge">
<title>type: expression, id: 17, oper_name: BIN_PLUS&#45;&gt;type: value, id: 16, type_name: DEC, value: 6</title>
<path fill="none" stroke="black" d="M1014.47,-143.97C1044.09,-134.05 1081.59,-121.49 1112.64,-111.09"/>
<polygon fill="black" stroke="black" points="1113.52,-114.48 1121.9,-107.99 1111.3,-107.84 1113.52,-114.48"/>
</g>
<!-- type: value, id: 13, type_name: DEC, value: 6 -->
<g id="node17" class="node">
<title>type: value, id: 13, type_name: DEC, value: 6</title>
<polygon fill="pink" stroke="black" points="568.64,-0.05 580.57,-0.15 592.38,-0.3 604.02,-0.49 615.43,-0.74 626.59,-1.03 637.43,-1.36 647.93,-1.75 658.03,-2.18 667.71,-2.65 676.92,-3.16 685.64,-3.71 693.83,-4.31 701.48,-4.94 708.55,-5.61 715.03,-6.31 720.9,-7.04 726.15,-7.8 730.77,-8.59 734.75,-9.41 738.1,-10.25 740.8,-11.11 742.88,-11.99 744.32,-12.89 745.15,-13.8 745.38,-14.72 745.01,-15.65 744.07,-16.59 742.57,-17.53 740.54,-18.47 737.99,-19.41 734.96,-20.35 731.46,-21.28 727.53,-22.2 723.18,-23.11 718.45,-24.01 713.35,-24.89 707.93,-25.75 702.19,-26.59 696.18,-27.41 689.9,-28.2 683.4,-28.96 676.68,-29.69 669.78,-30.39 662.71,-31.06 655.49,-31.69 648.14,-32.29 640.68,-32.84 633.12,-33.35 625.47,-33.82 617.76,-34.25 609.98,-34.64 602.16,-34.97 594.29,-35.26 586.39,-35.51 578.46,-35.7 570.52,-35.85 562.56,-35.95 554.6,-36 546.63,-36 538.66,-35.95 530.71,-35.85 522.76,-35.7 514.84,-35.51 506.94,-35.26 499.07,-34.97 491.25,-34.64 483.47,-34.25 475.75,-33.82 468.11,-33.35 460.55,-32.84 453.09,-32.29 445.74,-31.69 438.52,-31.06 431.45,-30.39 424.55,-29.69 417.83,-28.96 411.32,-28.2 405.05,-27.41 399.04,-26.59 393.3,-25.75 387.87,-24.89 382.78,-24.01 378.05,-23.11 373.7,-22.2 369.76,-21.28 366.27,-20.35 363.23,-19.41 360.69,-18.47 358.66,-17.53 357.16,-16.59 356.22,-15.65 355.85,-14.72 356.07,-13.8 356.9,-12.89 358.35,-11.99 360.42,-11.11 363.13,-10.25 366.48,-9.41 370.46,-8.59 375.08,-7.8 380.33,-7.04 386.2,-6.31 392.68,-5.61 399.75,-4.94 407.39,-4.31 415.59,-3.71 424.31,-3.16 433.52,-2.65 443.19,-2.18 453.3,-1.75 463.79,-1.36 474.64,-1.03 485.79,-0.74 497.21,-0.49 508.85,-0.3 520.66,-0.15 532.59,-0.05 544.6,0 556.63,0 568.64,-0.05"/>
<text text-anchor="middle" x="550.61" y="-12.95" font-family="Times,serif" font-size="14.00">type: value, id: 13, type_name: DEC, value: 6</text>
</g>
<!-- type: expression, id: 15, oper_name: BIN_PLUS&#45;&gt;type: value, id: 13, type_name: DEC, value: 6 -->
<g id="edge16" class="edge">
<title>type: expression, id: 15, oper_name: BIN_PLUS&#45;&gt;type: value, id: 13, type_name: DEC, value: 6</title>
<path fill="none" stroke="black" d="M704.97,-71.97C676.19,-62.09 639.78,-49.6 609.55,-39.22"/>
<polygon fill="black" stroke="black" points="610.74,-35.93 600.15,-36 608.47,-42.55 610.74,-35.93"/>
</g>
<!-- type: value, id: 14, type_name: DEC, value: 6 -->
<g id="node18" class="node">
<title>type: value, id: 14, type_name: DEC, value: 6</title>
<polygon fill="pink" stroke="black" points="976.64,-0.05 988.57,-0.15 1000.38,-0.3 1012.02,-0.49 1023.43,-0.74 1034.59,-1.03 1045.43,-1.36 1055.93,-1.75 1066.03,-2.18 1075.71,-2.65 1084.92,-3.16 1093.64,-3.71 1101.83,-4.31 1109.48,-4.94 1116.55,-5.61 1123.03,-6.31 1128.9,-7.04 1134.15,-7.8 1138.77,-8.59 1142.75,-9.41 1146.1,-10.25 1148.8,-11.11 1150.88,-11.99 1152.32,-12.89 1153.15,-13.8 1153.38,-14.72 1153.01,-15.65 1152.07,-16.59 1150.57,-17.53 1148.54,-18.47 1145.99,-19.41 1142.96,-20.35 1139.46,-21.28 1135.53,-22.2 1131.18,-23.11 1126.45,-24.01 1121.35,-24.89 1115.93,-25.75 1110.19,-26.59 1104.18,-27.41 1097.9,-28.2 1091.4,-28.96 1084.68,-29.69 1077.78,-30.39 1070.71,-31.06 1063.49,-31.69 1056.14,-32.29 1048.68,-32.84 1041.12,-33.35 1033.47,-33.82 1025.76,-34.25 1017.98,-34.64 1010.16,-34.97 1002.29,-35.26 994.39,-35.51 986.46,-35.7 978.52,-35.85 970.56,-35.95 962.6,-36 954.63,-36 946.66,-35.95 938.71,-35.85 930.76,-35.7 922.84,-35.51 914.94,-35.26 907.07,-34.97 899.25,-34.64 891.47,-34.25 883.75,-33.82 876.11,-33.35 868.55,-32.84 861.09,-32.29 853.74,-31.69 846.52,-31.06 839.45,-30.39 832.55,-29.69 825.83,-28.96 819.32,-28.2 813.05,-27.41 807.04,-26.59 801.3,-25.75 795.87,-24.89 790.78,-24.01 786.05,-23.11 781.7,-22.2 777.76,-21.28 774.27,-20.35 771.23,-19.41 768.69,-18.47 766.66,-17.53 765.16,-16.59 764.22,-15.65 763.85,-14.72 764.07,-13.8 764.9,-12.89 766.35,-11.99 768.42,-11.11 771.13,-10.25 774.48,-9.41 778.46,-8.59 783.08,-7.8 788.33,-7.04 794.2,-6.31 800.68,-5.61 807.75,-4.94 815.39,-4.31 823.59,-3.71 832.31,-3.16 841.52,-2.65 851.19,-2.18 861.3,-1.75 871.79,-1.36 882.64,-1.03 893.79,-0.74 905.21,-0.49 916.85,-0.3 928.66,-0.15 940.59,-0.05 952.6,0 964.63,0 976.64,-0.05"/>
<text text-anchor="middle" x="958.61" y="-12.95" font-family="Times,serif" font-size="14.00">type: value, id: 14, type_name: DEC, value: 6</text>
</g>
<!-- type: expression, id: 15, oper_name: BIN_PLUS&#45;&gt;type: value, id: 14, type_name: DEC, value: 6 -->
<g id="edge17" class="edge">
<title>type: expression, id: 15, oper_name: BIN_PLUS&#45;&gt;type: value, id: 14, type_name: DEC, value: 6</title>
<path fill="none" stroke="black" d="M804.26,-71.97C833.04,-62.09 869.45,-49.6 899.68,-39.22"/>
<polygon fill="black" stroke="black" points="900.76,-42.55 909.08,-36 898.48,-35.93 900.76,-42.55"/>
</g>
<!-- type: common, id: 10, name: body_item -->
<g id="node21" class="node">
<title>type: common, id: 10, name: body_item</title>
<polygon fill="pink" stroke="black" points="1341.62,-288.05 1352.22,-288.15 1362.7,-288.3 1373.04,-288.49 1383.18,-288.74 1393.08,-289.03 1402.71,-289.36 1412.04,-289.75 1421.01,-290.18 1429.6,-290.65 1437.78,-291.16 1445.52,-291.71 1452.8,-292.31 1459.59,-292.94 1465.87,-293.61 1471.62,-294.31 1476.84,-295.04 1481.5,-295.8 1485.6,-296.59 1489.14,-297.41 1492.11,-298.25 1494.51,-299.11 1496.36,-299.99 1497.64,-300.89 1498.38,-301.8 1498.57,-302.72 1498.25,-303.65 1497.41,-304.59 1496.08,-305.53 1494.28,-306.47 1492.02,-307.41 1489.32,-308.35 1486.22,-309.28 1482.72,-310.2 1478.86,-311.11 1474.66,-312.01 1470.14,-312.89 1465.32,-313.75 1460.22,-314.59 1454.88,-315.41 1449.31,-316.2 1443.53,-316.96 1437.57,-317.69 1431.44,-318.39 1425.16,-319.06 1418.75,-319.69 1412.22,-320.29 1405.6,-320.84 1398.88,-321.35 1392.09,-321.82 1385.24,-322.25 1378.34,-322.64 1371.39,-322.97 1364.4,-323.26 1357.39,-323.51 1350.35,-323.7 1343.29,-323.85 1336.23,-323.95 1329.15,-324 1322.08,-324 1315,-323.95 1307.94,-323.85 1300.88,-323.7 1293.84,-323.51 1286.83,-323.26 1279.84,-322.97 1272.89,-322.64 1265.99,-322.25 1259.13,-321.82 1252.35,-321.35 1245.63,-320.84 1239,-320.29 1232.48,-319.69 1226.07,-319.06 1219.79,-318.39 1213.66,-317.69 1207.69,-316.96 1201.92,-316.2 1196.35,-315.41 1191,-314.59 1185.91,-313.75 1181.09,-312.89 1176.57,-312.01 1172.36,-311.11 1168.5,-310.2 1165.01,-309.28 1161.9,-308.35 1159.21,-307.41 1156.95,-306.47 1155.15,-305.53 1153.82,-304.59 1152.98,-303.65 1152.65,-302.72 1152.85,-301.8 1153.59,-300.89 1154.87,-299.99 1156.71,-299.11 1159.12,-298.25 1162.09,-297.41 1165.63,-296.59 1169.73,-295.8 1174.39,-295.04 1179.61,-294.31 1185.36,-293.61 1191.64,-292.94 1198.43,-292.31 1205.7,-291.71 1213.44,-291.16 1221.63,-290.65 1230.22,-290.18 1239.19,-289.75 1248.51,-289.36 1258.14,-289.03 1268.05,-288.74 1278.19,-288.49 1288.52,-288.3 1299.01,-288.15 1309.61,-288.05 1320.27,-288 1330.96,-288 1341.62,-288.05"/>
<text text-anchor="middle" x="1325.61" y="-300.95" font-family="Times,serif" font-size="14.00">type: common, id: 10, name: body_item</text>
</g>
<!-- type: common, id: 11, name: body_var&#45;&gt;type: common, id: 10, name: body_item -->
<g id="edge20" class="edge">
<title>type: common, id: 11, name: body_var&#45;&gt;type: common, id: 10, name: body_item</title>
<path fill="none" stroke="black" d="M1307.55,-359.7C1310.1,-352.24 1313.16,-343.32 1316.03,-334.97"/>
<polygon fill="black" stroke="black" points="1319.33,-336.13 1319.26,-325.54 1312.7,-333.86 1319.33,-336.13"/>
</g>
<!-- type: common, id: 8, name: list -->
<g id="node22" class="node">
<title>type: common, id: 8, name: list</title>
<polygon fill="pink" stroke="black" points="1335.34,-216.05 1343.77,-216.15 1352.11,-216.3 1360.32,-216.49 1368.39,-216.74 1376.26,-217.03 1383.92,-217.36 1391.33,-217.75 1398.47,-218.18 1405.3,-218.65 1411.81,-219.16 1417.96,-219.71 1423.75,-220.31 1429.15,-220.94 1434.14,-221.61 1438.71,-222.31 1442.86,-223.04 1446.57,-223.8 1449.83,-224.59 1452.64,-225.41 1455.01,-226.25 1456.92,-227.11 1458.38,-227.99 1459.4,-228.89 1459.99,-229.8 1460.15,-230.72 1459.89,-231.65 1459.22,-232.59 1458.16,-233.53 1456.73,-234.47 1454.93,-235.41 1452.79,-236.35 1450.32,-237.28 1447.54,-238.2 1444.47,-239.11 1441.13,-240.01 1437.53,-240.89 1433.7,-241.75 1429.65,-242.59 1425.4,-243.41 1420.97,-244.2 1416.38,-244.96 1411.64,-245.69 1406.76,-246.39 1401.77,-247.06 1396.67,-247.69 1391.48,-248.29 1386.21,-248.84 1380.87,-249.35 1375.48,-249.82 1370.03,-250.25 1364.54,-250.64 1359.01,-250.97 1353.46,-251.26 1347.88,-251.51 1342.28,-251.7 1336.67,-251.85 1331.05,-251.95 1325.43,-252 1319.8,-252 1314.18,-251.95 1308.56,-251.85 1302.95,-251.7 1297.35,-251.51 1291.77,-251.26 1286.22,-250.97 1280.69,-250.64 1275.2,-250.25 1269.75,-249.82 1264.35,-249.35 1259.01,-248.84 1253.74,-248.29 1248.56,-247.69 1243.46,-247.06 1238.46,-246.39 1233.59,-245.69 1228.85,-244.96 1224.25,-244.2 1219.82,-243.41 1215.58,-242.59 1211.53,-241.75 1207.69,-240.89 1204.1,-240.01 1200.75,-239.11 1197.68,-238.2 1194.91,-237.28 1192.44,-236.35 1190.29,-235.41 1188.5,-234.47 1187.06,-233.53 1186.01,-232.59 1185.34,-231.65 1185.08,-230.72 1185.24,-229.8 1185.82,-228.89 1186.84,-227.99 1188.31,-227.11 1190.22,-226.25 1192.58,-225.41 1195.4,-224.59 1198.66,-223.8 1202.37,-223.04 1206.51,-222.31 1211.09,-221.61 1216.08,-220.94 1221.48,-220.31 1227.26,-219.71 1233.42,-219.16 1239.93,-218.65 1246.76,-218.18 1253.89,-217.75 1261.31,-217.36 1268.96,-217.03 1276.84,-216.74 1284.9,-216.49 1293.12,-216.3 1301.46,-216.15 1309.89,-216.05 1318.37,-216 1326.86,-216 1335.34,-216.05"/>
<text text-anchor="middle" x="1322.61" y="-228.95" font-family="Times,serif" font-size="14.00">type: common, id: 8, name: list</text>
</g>
<!-- type: common, id: 10, name: body_item&#45;&gt;type: common, id: 8, name: list -->
<g id="edge21" class="edge">
<title>type: common, id: 10, name: body_item&#45;&gt;type: common, id: 8, name: list</title>
<path fill="none" stroke="black" d="M1324.87,-287.7C1324.56,-280.41 1324.19,-271.73 1323.84,-263.54"/>
<polygon fill="black" stroke="black" points="1327.34,-263.46 1323.41,-253.62 1320.34,-263.76 1327.34,-263.46"/>
</g>
<!-- type: identifier, id: 9, value: sorokin -->
<g id="node24" class="node">
<title>type: identifier, id: 9, value: sorokin</title>
<polygon fill="pink" stroke="black" points="1646.9,-216.05 1656.37,-216.15 1665.73,-216.3 1674.96,-216.49 1684.01,-216.74 1692.85,-217.03 1701.45,-217.36 1709.78,-217.75 1717.79,-218.18 1725.46,-218.65 1732.76,-219.16 1739.68,-219.71 1746.17,-220.31 1752.23,-220.94 1757.84,-221.61 1762.98,-222.31 1767.63,-223.04 1771.8,-223.8 1775.46,-224.59 1778.62,-225.41 1781.27,-226.25 1783.42,-227.11 1785.06,-227.99 1786.21,-228.89 1786.87,-229.8 1787.04,-230.72 1786.75,-231.65 1786,-232.59 1784.82,-233.53 1783.21,-234.47 1781.19,-235.41 1778.78,-236.35 1776.01,-237.28 1772.89,-238.2 1769.44,-239.11 1765.69,-240.01 1761.65,-240.89 1757.35,-241.75 1752.8,-242.59 1748.03,-243.41 1743.06,-244.2 1737.9,-244.96 1732.57,-245.69 1727.1,-246.39 1721.49,-247.06 1715.77,-247.69 1709.94,-248.29 1704.03,-248.84 1698.03,-249.35 1691.97,-249.82 1685.85,-250.25 1679.69,-250.64 1673.48,-250.97 1667.24,-251.26 1660.98,-251.51 1654.7,-251.7 1648.4,-251.85 1642.09,-251.95 1635.77,-252 1629.45,-252 1623.14,-251.95 1616.83,-251.85 1610.53,-251.7 1604.25,-251.51 1597.98,-251.26 1591.75,-250.97 1585.54,-250.64 1579.37,-250.25 1573.26,-249.82 1567.2,-249.35 1561.2,-248.84 1555.28,-248.29 1549.46,-247.69 1543.73,-247.06 1538.13,-246.39 1532.65,-245.69 1527.33,-244.96 1522.17,-244.2 1517.2,-243.41 1512.43,-242.59 1507.88,-241.75 1503.58,-240.89 1499.54,-240.01 1495.78,-239.11 1492.34,-238.2 1489.22,-237.28 1486.44,-236.35 1484.04,-235.41 1482.02,-234.47 1480.41,-233.53 1479.22,-232.59 1478.48,-231.65 1478.18,-230.72 1478.36,-229.8 1479.02,-228.89 1480.17,-227.99 1481.81,-227.11 1483.96,-226.25 1486.61,-225.41 1489.77,-224.59 1493.43,-223.8 1497.59,-223.04 1502.25,-222.31 1507.39,-221.61 1512.99,-220.94 1519.05,-220.31 1525.55,-219.71 1532.46,-219.16 1539.77,-218.65 1547.44,-218.18 1555.45,-217.75 1563.77,-217.36 1572.37,-217.03 1581.22,-216.74 1590.27,-216.49 1599.5,-216.3 1608.86,-216.15 1618.32,-216.05 1627.84,-216 1637.38,-216 1646.9,-216.05"/>
<text text-anchor="middle" x="1632.61" y="-228.95" font-family="Times,serif" font-size="14.00">type: identifier, id: 9, value: sorokin</text>
</g>
<!-- type: common, id: 10, name: body_item&#45;&gt;type: identifier, id: 9, value: sorokin -->
<g id="edge23" class="edge">
<title>type: common, id: 10, name: body_item&#45;&gt;type: identifier, id: 9, value: sorokin</title>
<path fill="none" stroke="black" d="M1397.2,-288.68C1444.96,-277.79 1507.66,-263.49 1556.35,-252.39"/>
<polygon fill="black" stroke="black" points="1557.01,-255.83 1565.98,-250.19 1555.45,-249 1557.01,-255.83"/>
</g>
<!-- type: identifier, id: 7, value: a -->
<g id="node23" class="node">
<title>type: identifier, id: 7, value: a</title>
<polygon fill="pink" stroke="black" points="1334.58,-144.05 1342.51,-144.15 1350.35,-144.3 1358.08,-144.49 1365.67,-144.74 1373.07,-145.03 1380.28,-145.36 1387.25,-145.75 1393.96,-146.18 1400.39,-146.65 1406.5,-147.16 1412.29,-147.71 1417.74,-148.31 1422.81,-148.94 1427.51,-149.61 1431.81,-150.31 1435.71,-151.04 1439.2,-151.8 1442.27,-152.59 1444.91,-153.41 1447.14,-154.25 1448.93,-155.11 1450.31,-155.99 1451.27,-156.89 1451.82,-157.8 1451.97,-158.72 1451.73,-159.65 1451.1,-160.59 1450.11,-161.53 1448.76,-162.47 1447.07,-163.41 1445.05,-164.35 1442.73,-165.28 1440.12,-166.2 1437.23,-167.11 1434.08,-168.01 1430.7,-168.89 1427.1,-169.75 1423.29,-170.59 1419.29,-171.41 1415.13,-172.2 1410.81,-172.96 1406.35,-173.69 1401.76,-174.39 1397.06,-175.06 1392.27,-175.69 1387.39,-176.29 1382.43,-176.84 1377.41,-177.35 1372.33,-177.82 1367.21,-178.25 1362.04,-178.64 1356.85,-178.97 1351.62,-179.26 1346.38,-179.51 1341.11,-179.7 1335.84,-179.85 1330.55,-179.95 1325.26,-180 1319.97,-180 1314.68,-179.95 1309.39,-179.85 1304.12,-179.7 1298.85,-179.51 1293.6,-179.26 1288.38,-178.97 1283.18,-178.64 1278.02,-178.25 1272.89,-177.82 1267.82,-177.35 1262.8,-176.84 1257.84,-176.29 1252.96,-175.69 1248.16,-175.06 1243.47,-174.39 1238.88,-173.69 1234.42,-172.96 1230.1,-172.2 1225.93,-171.41 1221.94,-170.59 1218.13,-169.75 1214.53,-168.89 1211.14,-168.01 1208,-167.11 1205.11,-166.2 1202.5,-165.28 1200.17,-164.35 1198.16,-163.41 1196.47,-162.47 1195.12,-161.53 1194.13,-160.59 1193.5,-159.65 1193.26,-158.72 1193.4,-157.8 1193.96,-156.89 1194.92,-155.99 1196.29,-155.11 1198.09,-154.25 1200.31,-153.41 1202.96,-152.59 1206.03,-151.8 1209.51,-151.04 1213.41,-150.31 1217.72,-149.61 1222.41,-148.94 1227.49,-148.31 1232.93,-147.71 1238.72,-147.16 1244.84,-146.65 1251.27,-146.18 1257.98,-145.75 1264.95,-145.36 1272.15,-145.03 1279.56,-144.74 1287.15,-144.49 1294.87,-144.3 1302.72,-144.15 1310.64,-144.05 1318.62,-144 1326.61,-144 1334.58,-144.05"/>
<text text-anchor="middle" x="1322.61" y="-156.95" font-family="Times,serif" font-size="14.00">type: identifier, id: 7, value: a</text>
</g>
<!-- type: common, id: 8, name: list&#45;&gt;type: identifier, id: 7, value: a -->
<g id="edge22" class="edge">
<title>type: common, id: 8, name: list&#45;&gt;type: identifier, id: 7, value: a</title>
<path fill="none" stroke="black" d="M1322.61,-215.7C1322.61,-208.41 1322.61,-199.73 1322.61,-191.54"/>
<polygon fill="black" stroke="black" points="1326.11,-191.62 1322.61,-181.62 1319.11,-191.62 1326.11,-191.62"/>
</g>
</g>
</svg>
