<?xml version="1.0" encoding="UTF-8" standalone="no"?>
<!DOCTYPE svg PUBLIC "-//W3C//DTD SVG 1.1//EN"
 "http://www.w3.org/Graphics/SVG/1.1/DTD/svg11.dtd">
<!-- Generated by graphviz version 9.0.0 (20230911.1827)
 -->
<!-- Title: G Pages: 1 -->
<svg width="563pt" height="116pt"
 viewBox="0.00 0.00 563.22 116.00" xmlns="http://www.w3.org/2000/svg" xmlns:xlink="http://www.w3.org/1999/xlink">
<g id="graph0" class="graph" transform="scale(1 1) rotate(0) translate(4 112)">
<title>G</title>
<polygon fill="white" stroke="none" points="-4,4 -4,-112 559.22,-112 559.22,4 -4,4"/>
<!-- value: start, id: 0, ot:  -->
<g id="node1" class="node">
<title>value: start, id: 0, ot: </title>
<polygon fill="aquamarine" stroke="black" points="286.6,-72.05 292.56,-72.15 298.45,-72.3 304.26,-72.49 309.96,-72.74 315.53,-73.03 320.94,-73.36 326.18,-73.75 331.22,-74.18 336.05,-74.65 340.64,-75.16 345,-75.71 349.08,-76.31 352.9,-76.94 356.43,-77.61 359.66,-78.31 362.59,-79.04 365.21,-79.8 367.52,-80.59 369.51,-81.41 371.18,-82.25 372.53,-83.11 373.56,-83.99 374.28,-84.89 374.7,-85.8 374.81,-86.72 374.62,-87.65 374.15,-88.59 373.41,-89.53 372.39,-90.47 371.12,-91.41 369.61,-92.35 367.86,-93.28 365.9,-94.2 363.73,-95.11 361.37,-96.01 358.83,-96.89 356.12,-97.75 353.26,-98.59 350.25,-99.41 347.12,-100.2 343.88,-100.96 340.53,-101.69 337.08,-102.39 333.55,-103.06 329.95,-103.69 326.28,-104.29 322.56,-104.84 318.78,-105.35 314.97,-105.82 311.12,-106.25 307.24,-106.64 303.33,-106.97 299.41,-107.26 295.46,-107.51 291.51,-107.7 287.54,-107.85 283.57,-107.95 279.6,-108 275.62,-108 271.65,-107.95 267.67,-107.85 263.71,-107.7 259.75,-107.51 255.81,-107.26 251.89,-106.97 247.98,-106.64 244.1,-106.25 240.25,-105.82 236.43,-105.35 232.66,-104.84 228.94,-104.29 225.27,-103.69 221.67,-103.06 218.14,-102.39 214.69,-101.69 211.34,-100.96 208.09,-100.2 204.96,-99.41 201.96,-98.59 199.1,-97.75 196.39,-96.89 193.85,-96.01 191.49,-95.11 189.32,-94.2 187.35,-93.28 185.61,-92.35 184.09,-91.41 182.82,-90.47 181.81,-89.53 181.06,-88.59 180.59,-87.65 180.41,-86.72 180.52,-85.8 180.93,-84.89 181.66,-83.99 182.69,-83.11 184.04,-82.25 185.71,-81.41 187.7,-80.59 190.01,-79.8 192.63,-79.04 195.56,-78.31 198.79,-77.61 202.32,-76.94 206.13,-76.31 210.22,-75.71 214.57,-75.16 219.17,-74.65 224,-74.18 229.04,-73.75 234.28,-73.36 239.69,-73.03 245.26,-72.74 250.96,-72.49 256.77,-72.3 262.66,-72.15 268.61,-72.05 274.61,-72 280.61,-72 286.6,-72.05"/>
<text text-anchor="middle" x="277.61" y="-84.95" font-family="Times,serif" font-size="14.00">value: start, id: 0, ot: </text>
</g>
<!-- value: assigment, id: 1, ot: a WRITE 6 BIN_PLUS 6 BIN_PLUS 6 -->
<g id="node2" class="node">
<title>value: assigment, id: 1, ot: a WRITE 6 BIN_PLUS 6 BIN_PLUS 6</title>
<polygon fill="aquamarine" stroke="black" points="303.3,-0.05 320.31,-0.15 337.14,-0.3 353.73,-0.49 370,-0.74 385.9,-1.03 401.36,-1.36 416.32,-1.75 430.72,-2.18 444.51,-2.65 457.64,-3.16 470.07,-3.71 481.75,-4.31 492.65,-4.94 502.72,-5.61 511.96,-6.31 520.33,-7.04 527.81,-7.8 534.39,-8.59 540.07,-9.41 544.84,-10.25 548.7,-11.11 551.66,-11.99 553.72,-12.89 554.9,-13.8 555.22,-14.72 554.69,-15.65 553.35,-16.59 551.22,-17.53 548.32,-18.47 544.69,-19.41 540.37,-20.35 535.39,-21.28 529.78,-22.2 523.58,-23.11 516.83,-24.01 509.57,-24.89 501.84,-25.75 493.66,-26.59 485.09,-27.41 476.15,-28.2 466.88,-28.96 457.3,-29.69 447.46,-30.39 437.38,-31.06 427.09,-31.69 416.62,-32.29 405.98,-32.84 395.21,-33.35 384.31,-33.82 373.31,-34.25 362.23,-34.64 351.08,-34.97 339.86,-35.26 328.6,-35.51 317.31,-35.7 305.98,-35.85 294.64,-35.95 283.29,-36 271.93,-36 260.58,-35.95 249.23,-35.85 237.91,-35.7 226.61,-35.51 215.35,-35.26 204.14,-34.97 192.99,-34.64 181.9,-34.25 170.91,-33.82 160.01,-33.35 149.23,-32.84 138.6,-32.29 128.12,-31.69 117.83,-31.06 107.75,-30.39 97.91,-29.69 88.34,-28.96 79.07,-28.2 70.13,-27.41 61.55,-26.59 53.38,-25.75 45.64,-24.89 38.38,-24.01 31.64,-23.11 25.44,-22.2 19.83,-21.28 14.85,-20.35 10.52,-19.41 6.9,-18.47 4,-17.53 1.87,-16.59 0.52,-15.65 0,-14.72 0.32,-13.8 1.5,-12.89 3.56,-11.99 6.52,-11.11 10.38,-10.25 15.14,-9.41 20.82,-8.59 27.41,-7.8 34.89,-7.04 43.26,-6.31 52.49,-5.61 62.57,-4.94 73.47,-4.31 85.15,-3.71 97.57,-3.16 110.7,-2.65 124.5,-2.18 138.9,-1.75 153.86,-1.36 169.32,-1.03 185.22,-0.74 201.49,-0.49 218.08,-0.3 234.91,-0.15 251.92,-0.05 269.03,0 286.18,0 303.3,-0.05"/>
<text text-anchor="middle" x="277.61" y="-12.95" font-family="Times,serif" font-size="14.00">value: assigment, id: 1, ot: a WRITE 6 BIN_PLUS 6 BIN_PLUS 6</text>
</g>
<!-- value: start, id: 0, ot: &#45;&gt;value: assigment, id: 1, ot: a WRITE 6 BIN_PLUS 6 BIN_PLUS 6 -->
<g id="edge1" class="edge">
<title>value: start, id: 0, ot: &#45;&gt;value: assigment, id: 1, ot: a WRITE 6 BIN_PLUS 6 BIN_PLUS 6</title>
<path fill="none" stroke="black" d="M277.61,-71.7C277.61,-64.41 277.61,-55.73 277.61,-47.54"/>
<polygon fill="black" stroke="black" points="281.11,-47.62 277.61,-37.62 274.11,-47.62 281.11,-47.62"/>
</g>
</g>
</svg>
