<?xml version="1.0" encoding="UTF-8" standalone="no"?>
<!DOCTYPE svg PUBLIC "-//W3C//DTD SVG 1.1//EN"
 "http://www.w3.org/Graphics/SVG/1.1/DTD/svg11.dtd">
<!-- Generated by graphviz version 9.0.0 (20230911.1827)
 -->
<!-- Title: G Pages: 1 -->
<svg width="1267pt" height="692pt"
 viewBox="0.00 0.00 1267.42 692.00" xmlns="http://www.w3.org/2000/svg" xmlns:xlink="http://www.w3.org/1999/xlink">
<g id="graph0" class="graph" transform="scale(1 1) rotate(0) translate(4 688)">
<title>G</title>
<polygon fill="white" stroke="none" points="-4,4 -4,-688 1263.42,-688 1263.42,4 -4,4"/>
<!-- value: start, id: 0, ot:  -->
<g id="node1" class="node">
<title>value: start, id: 0, ot: </title>
<polygon fill="aquamarine" stroke="black" points="275.7,-648.05 281.66,-648.15 287.55,-648.3 293.36,-648.49 299.06,-648.74 304.62,-649.03 310.04,-649.36 315.27,-649.75 320.32,-650.18 325.15,-650.65 329.74,-651.16 334.09,-651.71 338.18,-652.31 342,-652.94 345.53,-653.61 348.76,-654.31 351.69,-655.04 354.31,-655.8 356.62,-656.59 358.6,-657.41 360.27,-658.25 361.63,-659.11 362.66,-659.99 363.38,-660.89 363.8,-661.8 363.91,-662.72 363.72,-663.65 363.25,-664.59 362.51,-665.53 361.49,-666.47 360.22,-667.41 358.71,-668.35 356.96,-669.28 355,-670.2 352.83,-671.11 350.47,-672.01 347.93,-672.89 345.22,-673.75 342.36,-674.59 339.35,-675.41 336.22,-676.2 332.98,-676.96 329.62,-677.69 326.18,-678.39 322.65,-679.06 319.05,-679.69 315.38,-680.29 311.66,-680.84 307.88,-681.35 304.07,-681.82 300.22,-682.25 296.34,-682.64 292.43,-682.97 288.51,-683.26 284.56,-683.51 280.61,-683.7 276.64,-683.85 272.67,-683.95 268.7,-684 264.72,-684 260.74,-683.95 256.77,-683.85 252.81,-683.7 248.85,-683.51 244.91,-683.26 240.98,-682.97 237.08,-682.64 233.2,-682.25 229.35,-681.82 225.53,-681.35 221.76,-680.84 218.04,-680.29 214.37,-679.69 210.77,-679.06 207.24,-678.39 203.79,-677.69 200.44,-676.96 197.19,-676.2 194.06,-675.41 191.06,-674.59 188.2,-673.75 185.49,-672.89 182.95,-672.01 180.59,-671.11 178.42,-670.2 176.45,-669.28 174.71,-668.35 173.19,-667.41 171.92,-666.47 170.91,-665.53 170.16,-664.59 169.69,-663.65 169.51,-662.72 169.62,-661.8 170.03,-660.89 170.76,-659.99 171.79,-659.11 173.14,-658.25 174.81,-657.41 176.8,-656.59 179.1,-655.8 181.72,-655.04 184.65,-654.31 187.89,-653.61 191.42,-652.94 195.23,-652.31 199.32,-651.71 203.67,-651.16 208.27,-650.65 213.1,-650.18 218.14,-649.75 223.38,-649.36 228.79,-649.03 234.36,-648.74 240.06,-648.49 245.86,-648.3 251.76,-648.15 257.71,-648.05 263.71,-648 269.71,-648 275.7,-648.05"/>
<text text-anchor="middle" x="266.71" y="-660.95" font-family="Times,serif" font-size="14.00">value: start, id: 0, ot: </text>
</g>
<!-- value: assigment, id: 1, ot: a WRITE 1 -->
<g id="node2" class="node">
<title>value: assigment, id: 1, ot: a WRITE 1</title>
<polygon fill="aquamarine" stroke="black" points="282.01,-576.05 292.14,-576.15 302.16,-576.3 312.04,-576.49 321.73,-576.74 331.2,-577.03 340.41,-577.36 349.32,-577.75 357.89,-578.18 366.11,-578.65 373.93,-579.16 381.33,-579.71 388.28,-580.31 394.77,-580.94 400.78,-581.61 406.27,-582.31 411.26,-583.04 415.71,-583.8 419.64,-584.59 423.02,-585.41 425.86,-586.25 428.16,-587.11 429.92,-587.99 431.15,-588.89 431.85,-589.8 432.04,-590.72 431.73,-591.65 430.93,-592.59 429.65,-593.53 427.93,-594.47 425.77,-595.41 423.2,-596.35 420.23,-597.28 416.89,-598.2 413.2,-599.11 409.18,-600.01 404.85,-600.89 400.25,-601.75 395.38,-602.59 390.27,-603.41 384.95,-604.2 379.43,-604.96 373.72,-605.69 367.86,-606.39 361.86,-607.06 355.73,-607.69 349.5,-608.29 343.16,-608.84 336.74,-609.35 330.25,-609.82 323.71,-610.25 317.1,-610.64 310.46,-610.97 303.78,-611.26 297.08,-611.51 290.35,-611.7 283.61,-611.85 276.85,-611.95 270.09,-612 263.33,-612 256.56,-611.95 249.81,-611.85 243.07,-611.7 236.34,-611.51 229.63,-611.26 222.95,-610.97 216.31,-610.64 209.71,-610.25 203.16,-609.82 196.67,-609.35 190.25,-608.84 183.92,-608.29 177.68,-607.69 171.55,-607.06 165.55,-606.39 159.69,-605.69 153.99,-604.96 148.47,-604.2 143.14,-603.41 138.04,-602.59 133.17,-601.75 128.56,-600.89 124.24,-600.01 120.22,-599.11 116.53,-598.2 113.19,-597.28 110.22,-596.35 107.65,-595.41 105.49,-594.47 103.76,-593.53 102.49,-592.59 101.69,-591.65 101.38,-590.72 101.57,-589.8 102.27,-588.89 103.5,-587.99 105.26,-587.11 107.56,-586.25 110.4,-585.41 113.78,-584.59 117.7,-583.8 122.16,-583.04 127.14,-582.31 132.64,-581.61 138.64,-580.94 145.13,-580.31 152.09,-579.71 159.49,-579.16 167.31,-578.65 175.52,-578.18 184.1,-577.75 193.01,-577.36 202.21,-577.03 211.68,-576.74 221.38,-576.49 231.26,-576.3 241.28,-576.15 251.41,-576.05 261.6,-576 271.81,-576 282.01,-576.05"/>
<text text-anchor="middle" x="266.71" y="-588.95" font-family="Times,serif" font-size="14.00">value: assigment, id: 1, ot: a WRITE 1</text>
</g>
<!-- value: start, id: 0, ot: &#45;&gt;value: assigment, id: 1, ot: a WRITE 1 -->
<g id="edge1" class="edge">
<title>value: start, id: 0, ot: &#45;&gt;value: assigment, id: 1, ot: a WRITE 1</title>
<path fill="none" stroke="black" d="M266.71,-647.7C266.71,-640.41 266.71,-631.73 266.71,-623.54"/>
<polygon fill="black" stroke="black" points="270.21,-623.62 266.71,-613.62 263.21,-623.62 270.21,-623.62"/>
</g>
<!-- value: do&#45;until, id: 2, ot: a WRITE 2 -->
<g id="node3" class="node">
<title>value: do&#45;until, id: 2, ot: a WRITE 2</title>
<polygon fill="aquamarine" stroke="black" points="281.2,-504.05 290.79,-504.15 300.29,-504.3 309.65,-504.49 318.83,-504.74 327.8,-505.03 336.52,-505.36 344.96,-505.75 353.08,-506.18 360.86,-506.65 368.27,-507.16 375.28,-507.71 381.87,-508.31 388.02,-508.94 393.7,-509.61 398.91,-510.31 403.63,-511.04 407.86,-511.8 411.57,-512.59 414.77,-513.41 417.46,-514.25 419.64,-515.11 421.31,-515.99 422.47,-516.89 423.14,-517.8 423.32,-518.72 423.02,-519.65 422.26,-520.59 421.06,-521.53 419.43,-522.47 417.38,-523.41 414.94,-524.35 412.13,-525.28 408.97,-526.2 405.47,-527.11 401.66,-528.01 397.57,-528.89 393.2,-529.75 388.59,-530.59 383.76,-531.41 378.71,-532.2 373.48,-532.96 368.08,-533.69 362.53,-534.39 356.84,-535.06 351.04,-535.69 345.13,-536.29 339.13,-536.84 333.05,-537.35 326.9,-537.82 320.7,-538.25 314.45,-538.64 308.15,-538.97 301.83,-539.26 295.48,-539.51 289.1,-539.7 282.72,-539.85 276.32,-539.95 269.91,-540 263.5,-540 257.1,-539.95 250.7,-539.85 244.31,-539.7 237.94,-539.51 231.59,-539.26 225.26,-538.97 218.97,-538.64 212.72,-538.25 206.51,-537.82 200.37,-537.35 194.29,-536.84 188.29,-536.29 182.38,-535.69 176.57,-535.06 170.89,-534.39 165.34,-533.69 159.94,-532.96 154.7,-532.2 149.66,-531.41 144.82,-530.59 140.21,-529.75 135.85,-528.89 131.75,-528.01 127.95,-527.11 124.45,-526.2 121.29,-525.28 118.47,-524.35 116.04,-523.41 113.99,-522.47 112.36,-521.53 111.15,-520.59 110.39,-519.65 110.1,-518.72 110.28,-517.8 110.94,-516.89 112.11,-515.99 113.77,-515.11 115.95,-514.25 118.64,-513.41 121.85,-512.59 125.56,-511.8 129.78,-511.04 134.5,-510.31 139.71,-509.61 145.4,-508.94 151.54,-508.31 158.13,-507.71 165.14,-507.16 172.55,-506.65 180.33,-506.18 188.46,-505.75 196.9,-505.36 205.62,-505.03 214.59,-504.74 223.77,-504.49 233.13,-504.3 242.62,-504.15 252.22,-504.05 261.87,-504 271.55,-504 281.2,-504.05"/>
<text text-anchor="middle" x="266.71" y="-516.95" font-family="Times,serif" font-size="14.00">value: do&#45;until, id: 2, ot: a WRITE 2</text>
</g>
<!-- value: assigment, id: 1, ot: a WRITE 1&#45;&gt;value: do&#45;until, id: 2, ot: a WRITE 2 -->
<g id="edge2" class="edge">
<title>value: assigment, id: 1, ot: a WRITE 1&#45;&gt;value: do&#45;until, id: 2, ot: a WRITE 2</title>
<path fill="none" stroke="black" d="M266.71,-575.7C266.71,-568.41 266.71,-559.73 266.71,-551.54"/>
<polygon fill="black" stroke="black" points="270.21,-551.62 266.71,-541.62 263.21,-551.62 270.21,-551.62"/>
</g>
<!-- value: expression, id: 3, ot: a READ &#160;BIN_GREATER c READ  -->
<g id="node4" class="node">
<title>value: expression, id: 3, ot: a READ &#160;BIN_GREATER c READ </title>
<polygon fill="aquamarine" stroke="black" points="291.39,-432.05 307.73,-432.15 323.9,-432.3 339.84,-432.49 355.47,-432.74 370.75,-433.03 385.6,-433.36 399.97,-433.75 413.81,-434.18 427.06,-434.65 439.67,-435.16 451.61,-435.71 462.83,-436.31 473.3,-436.94 482.98,-437.61 491.86,-438.31 499.89,-439.04 507.08,-439.8 513.41,-440.59 518.87,-441.41 523.45,-442.25 527.16,-443.11 530,-443.99 531.98,-444.89 533.11,-445.8 533.42,-446.72 532.91,-447.65 531.62,-448.59 529.57,-449.53 526.79,-450.47 523.3,-451.41 519.15,-452.35 514.36,-453.28 508.97,-454.2 503.02,-455.11 496.54,-456.01 489.56,-456.89 482.13,-457.75 474.28,-458.59 466.04,-459.41 457.45,-460.2 448.54,-460.96 439.35,-461.69 429.89,-462.39 420.21,-463.06 410.32,-463.69 400.26,-464.29 390.04,-464.84 379.69,-465.35 369.22,-465.82 358.66,-466.25 348.01,-466.64 337.29,-466.97 326.52,-467.26 315.7,-467.51 304.85,-467.7 293.97,-467.85 283.07,-467.95 272.16,-468 261.25,-468 250.34,-467.95 239.45,-467.85 228.57,-467.7 217.72,-467.51 206.9,-467.26 196.13,-466.97 185.41,-466.64 174.76,-466.25 164.19,-465.82 153.73,-465.35 143.37,-464.84 133.16,-464.29 123.09,-463.69 113.21,-463.06 103.52,-462.39 94.07,-461.69 84.87,-460.96 75.96,-460.2 67.37,-459.41 59.14,-458.59 51.28,-457.75 43.85,-456.89 36.88,-456.01 30.39,-455.11 24.44,-454.2 19.05,-453.28 14.26,-452.35 10.11,-451.41 6.63,-450.47 3.84,-449.53 1.79,-448.59 0.5,-447.65 0,-446.72 0.31,-445.8 1.44,-444.89 3.42,-443.99 6.26,-443.11 9.97,-442.25 14.55,-441.41 20.01,-440.59 26.33,-439.8 33.52,-439.04 41.56,-438.31 50.43,-437.61 60.12,-436.94 70.58,-436.31 81.8,-435.71 93.74,-435.16 106.36,-434.65 119.61,-434.18 133.44,-433.75 147.82,-433.36 162.67,-433.03 177.94,-432.74 193.58,-432.49 209.52,-432.3 225.69,-432.15 242.03,-432.05 258.47,-432 274.95,-432 291.39,-432.05"/>
<text text-anchor="middle" x="266.71" y="-444.95" font-family="Times,serif" font-size="14.00">value: expression, id: 3, ot: a READ &#160;BIN_GREATER c READ </text>
</g>
<!-- value: do&#45;until, id: 2, ot: a WRITE 2&#45;&gt;value: expression, id: 3, ot: a READ &#160;BIN_GREATER c READ  -->
<g id="edge3" class="edge">
<title>value: do&#45;until, id: 2, ot: a WRITE 2&#45;&gt;value: expression, id: 3, ot: a READ &#160;BIN_GREATER c READ </title>
<path fill="none" stroke="black" d="M260.79,-503.7C260.04,-496.41 259.8,-487.73 260.06,-479.54"/>
<polygon fill="black" stroke="black" points="263.55,-479.82 260.71,-469.61 256.56,-479.36 263.55,-479.82"/>
</g>
<!-- value: assigment, id: 11, ot: a WRITE 8 -->
<g id="node5" class="node">
<title>value: assigment, id: 11, ot: a WRITE 8</title>
<polygon fill="aquamarine" stroke="black" points="737.46,-432.05 747.89,-432.15 758.21,-432.3 768.38,-432.49 778.37,-432.74 788.11,-433.03 797.59,-433.36 806.77,-433.75 815.6,-434.18 824.06,-434.65 832.11,-435.16 839.73,-435.71 846.89,-436.31 853.57,-436.94 859.75,-437.61 865.42,-438.31 870.55,-439.04 875.14,-439.8 879.17,-440.59 882.66,-441.41 885.58,-442.25 887.95,-443.11 889.76,-443.99 891.02,-444.89 891.75,-445.8 891.94,-446.72 891.62,-447.65 890.8,-448.59 889.49,-449.53 887.71,-450.47 885.49,-451.41 882.84,-452.35 879.78,-453.28 876.34,-454.2 872.54,-455.11 868.4,-456.01 863.95,-456.89 859.21,-457.75 854.2,-458.59 848.94,-459.41 843.46,-460.2 837.77,-460.96 831.9,-461.69 825.87,-462.39 819.69,-463.06 813.38,-463.69 806.95,-464.29 800.43,-464.84 793.82,-465.35 787.14,-465.82 780.4,-466.25 773.6,-466.64 766.76,-466.97 759.88,-467.26 752.98,-467.51 746.05,-467.7 739.11,-467.85 732.15,-467.95 725.19,-468 718.23,-468 711.26,-467.95 704.31,-467.85 697.36,-467.7 690.44,-467.51 683.53,-467.26 676.66,-466.97 669.82,-466.64 663.02,-466.25 656.28,-465.82 649.59,-465.35 642.99,-464.84 636.46,-464.29 630.04,-463.69 623.73,-463.06 617.55,-462.39 611.52,-461.69 605.65,-460.96 599.96,-460.2 594.48,-459.41 589.22,-458.59 584.21,-457.75 579.46,-456.89 575.01,-456.01 570.87,-455.11 567.07,-454.2 563.63,-453.28 560.58,-452.35 557.93,-451.41 555.7,-450.47 553.93,-449.53 552.62,-448.59 551.79,-447.65 551.47,-446.72 551.67,-445.8 552.39,-444.89 553.66,-443.99 555.47,-443.11 557.84,-442.25 560.76,-441.41 564.24,-440.59 568.28,-439.8 572.87,-439.04 578,-438.31 583.66,-437.61 589.84,-436.94 596.52,-436.31 603.69,-435.71 611.31,-435.16 619.36,-434.65 627.82,-434.18 636.65,-433.75 645.82,-433.36 655.3,-433.03 665.05,-432.74 675.03,-432.49 685.2,-432.3 695.53,-432.15 705.95,-432.05 716.45,-432 726.97,-432 737.46,-432.05"/>
<text text-anchor="middle" x="721.71" y="-444.95" font-family="Times,serif" font-size="14.00">value: assigment, id: 11, ot: a WRITE 8</text>
</g>
<!-- value: do&#45;until, id: 2, ot: a WRITE 2&#45;&gt;value: assigment, id: 11, ot: a WRITE 8 -->
<g id="edge5" class="edge">
<title>value: do&#45;until, id: 2, ot: a WRITE 2&#45;&gt;value: assigment, id: 11, ot: a WRITE 8</title>
<path fill="none" stroke="black" d="M362.37,-506.28C438.76,-494.53 545.44,-478.12 622.71,-466.23"/>
<polygon fill="black" stroke="black" points="623.04,-469.72 632.39,-464.74 621.97,-462.8 623.04,-469.72"/>
</g>
<!-- value: expression, id: 3, ot: a READ &#160;BIN_GREATER c READ &#45;&gt;value: do&#45;until, id: 2, ot: a WRITE 2 -->
<g id="edge4" class="edge">
<title>value: expression, id: 3, ot: a READ &#160;BIN_GREATER c READ &#45;&gt;value: do&#45;until, id: 2, ot: a WRITE 2</title>
<path fill="none" stroke="black" d="M272.6,-468.1C273.36,-475.37 273.62,-484.04 273.36,-492.24"/>
<polygon fill="black" stroke="black" points="269.87,-491.98 272.72,-502.19 276.86,-492.43 269.87,-491.98"/>
</g>
<!-- value: assigment, id: 12, ot: a WRITE a READ &#160;BIN_PLUS 6 -->
<g id="node6" class="node">
<title>value: assigment, id: 12, ot: a WRITE a READ &#160;BIN_PLUS 6</title>
<polygon fill="aquamarine" stroke="black" points="745.58,-360.05 761.39,-360.15 777.03,-360.3 792.45,-360.49 807.57,-360.74 822.35,-361.03 836.71,-361.36 850.61,-361.75 864,-362.18 876.82,-362.65 889.02,-363.16 900.57,-363.71 911.42,-364.31 921.55,-364.94 930.91,-365.61 939.49,-366.31 947.27,-367.04 954.22,-367.8 960.34,-368.59 965.62,-369.41 970.05,-370.25 973.64,-371.11 976.39,-371.99 978.3,-372.89 979.4,-373.8 979.7,-374.72 979.21,-375.65 977.96,-376.59 975.98,-377.53 973.28,-378.47 969.91,-379.41 965.9,-380.35 961.27,-381.28 956.05,-382.2 950.29,-383.11 944.02,-384.01 937.28,-384.89 930.09,-385.75 922.49,-386.59 914.52,-387.41 906.21,-388.2 897.6,-388.96 888.7,-389.69 879.56,-390.39 870.19,-391.06 860.63,-391.69 850.89,-392.29 841.01,-392.84 830.99,-393.35 820.87,-393.82 810.65,-394.25 800.35,-394.64 789.98,-394.97 779.56,-395.26 769.1,-395.51 758.6,-395.7 748.08,-395.85 737.54,-395.95 726.99,-396 716.43,-396 705.88,-395.95 695.34,-395.85 684.82,-395.7 674.32,-395.51 663.85,-395.26 653.43,-394.97 643.07,-394.64 632.77,-394.25 622.55,-393.82 612.42,-393.35 602.41,-392.84 592.52,-392.29 582.79,-391.69 573.23,-391.06 563.86,-390.39 554.71,-389.69 545.82,-388.96 537.2,-388.2 528.89,-387.41 520.92,-386.59 513.33,-385.75 506.14,-384.89 499.39,-384.01 493.12,-383.11 487.36,-382.2 482.15,-381.28 477.52,-380.35 473.5,-379.41 470.13,-378.47 467.44,-377.53 465.46,-376.59 464.21,-375.65 463.72,-374.72 464.02,-373.8 465.11,-372.89 467.03,-371.99 469.78,-371.11 473.36,-370.25 477.79,-369.41 483.07,-368.59 489.19,-367.8 496.15,-367.04 503.92,-366.31 512.5,-365.61 521.87,-364.94 532,-364.31 542.85,-363.71 554.4,-363.16 566.6,-362.65 579.42,-362.18 592.8,-361.75 606.7,-361.36 621.07,-361.03 635.85,-360.74 650.97,-360.49 666.39,-360.3 682.03,-360.15 697.83,-360.05 713.74,-360 729.68,-360 745.58,-360.05"/>
<text text-anchor="middle" x="721.71" y="-372.95" font-family="Times,serif" font-size="14.00">value: assigment, id: 12, ot: a WRITE a READ &#160;BIN_PLUS 6</text>
</g>
<!-- value: assigment, id: 11, ot: a WRITE 8&#45;&gt;value: assigment, id: 12, ot: a WRITE a READ &#160;BIN_PLUS 6 -->
<g id="edge6" class="edge">
<title>value: assigment, id: 11, ot: a WRITE 8&#45;&gt;value: assigment, id: 12, ot: a WRITE a READ &#160;BIN_PLUS 6</title>
<path fill="none" stroke="black" d="M721.71,-431.7C721.71,-424.41 721.71,-415.73 721.71,-407.54"/>
<polygon fill="black" stroke="black" points="725.21,-407.62 721.71,-397.62 718.21,-407.62 725.21,-407.62"/>
</g>
<!-- value: if, id: 13, ot: a READ &#160;BIN_GREATER 10 -->
<g id="node7" class="node">
<title>value: if, id: 13, ot: a READ &#160;BIN_GREATER 10</title>
<polygon fill="aquamarine" stroke="black" points="741.04,-288.05 753.84,-288.15 766.51,-288.3 779,-288.49 791.24,-288.74 803.21,-289.03 814.84,-289.36 826.1,-289.75 836.94,-290.18 847.32,-290.65 857.21,-291.16 866.56,-291.71 875.35,-292.31 883.55,-292.94 891.13,-293.61 898.08,-294.31 904.38,-295.04 910.01,-295.8 914.97,-296.59 919.24,-297.41 922.83,-298.25 925.74,-299.11 927.96,-299.99 929.51,-300.89 930.4,-301.8 930.64,-302.72 930.25,-303.65 929.24,-304.59 927.63,-305.53 925.45,-306.47 922.72,-307.41 919.47,-308.35 915.72,-309.28 911.49,-310.2 906.83,-311.11 901.75,-312.01 896.29,-312.89 890.47,-313.75 884.31,-314.59 877.86,-315.41 871.13,-316.2 864.15,-316.96 856.95,-317.69 849.54,-318.39 841.96,-319.06 834.21,-319.69 826.33,-320.29 818.32,-320.84 810.21,-321.35 802.01,-321.82 793.74,-322.25 785.4,-322.64 777,-322.97 768.56,-323.26 760.09,-323.51 751.59,-323.7 743.06,-323.85 734.53,-323.95 725.98,-324 717.43,-324 708.89,-323.95 700.35,-323.85 691.83,-323.7 683.33,-323.51 674.85,-323.26 666.42,-322.97 658.02,-322.64 649.68,-322.25 641.4,-321.82 633.2,-321.35 625.09,-320.84 617.09,-320.29 609.2,-319.69 601.46,-319.06 593.87,-318.39 586.47,-317.69 579.26,-316.96 572.28,-316.2 565.55,-315.41 559.1,-314.59 552.95,-313.75 547.13,-312.89 541.66,-312.01 536.59,-311.11 531.92,-310.2 527.7,-309.28 523.95,-308.35 520.7,-307.41 517.97,-306.47 515.79,-305.53 514.18,-304.59 513.17,-303.65 512.77,-302.72 513.01,-301.8 513.9,-300.89 515.45,-299.99 517.68,-299.11 520.58,-298.25 524.17,-297.41 528.45,-296.59 533.4,-295.8 539.03,-295.04 545.33,-294.31 552.28,-293.61 559.87,-292.94 568.07,-292.31 576.86,-291.71 586.21,-291.16 596.09,-290.65 606.47,-290.18 617.31,-289.75 628.57,-289.36 640.21,-289.03 652.17,-288.74 664.42,-288.49 676.9,-288.3 689.57,-288.15 702.37,-288.05 715.25,-288 728.16,-288 741.04,-288.05"/>
<text text-anchor="middle" x="721.71" y="-300.95" font-family="Times,serif" font-size="14.00">value: if, id: 13, ot: a READ &#160;BIN_GREATER 10</text>
</g>
<!-- value: assigment, id: 12, ot: a WRITE a READ &#160;BIN_PLUS 6&#45;&gt;value: if, id: 13, ot: a READ &#160;BIN_GREATER 10 -->
<g id="edge7" class="edge">
<title>value: assigment, id: 12, ot: a WRITE a READ &#160;BIN_PLUS 6&#45;&gt;value: if, id: 13, ot: a READ &#160;BIN_GREATER 10</title>
<path fill="none" stroke="black" d="M721.71,-359.7C721.71,-352.41 721.71,-343.73 721.71,-335.54"/>
<polygon fill="black" stroke="black" points="725.21,-335.62 721.71,-325.62 718.21,-335.62 725.21,-335.62"/>
</g>
<!-- value: assigment, id: 14, ot: a WRITE a READ &#160;BIN_MUL 2 -->
<g id="node8" class="node">
<title>value: assigment, id: 14, ot: a WRITE a READ &#160;BIN_MUL 2</title>
<polygon fill="aquamarine" stroke="black" points="480.38,-216.05 496.05,-216.15 511.56,-216.3 526.85,-216.49 541.84,-216.74 556.5,-217.03 570.74,-217.36 584.52,-217.75 597.8,-218.18 610.5,-218.65 622.6,-219.16 634.06,-219.71 644.82,-220.31 654.86,-220.94 664.14,-221.61 672.65,-222.31 680.36,-223.04 687.26,-223.8 693.33,-224.59 698.56,-225.41 702.95,-226.25 706.51,-227.11 709.23,-227.99 711.13,-228.89 712.22,-229.8 712.51,-230.72 712.03,-231.65 710.79,-232.59 708.83,-233.53 706.16,-234.47 702.82,-235.41 698.83,-236.35 694.24,-237.28 689.07,-238.2 683.36,-239.11 677.14,-240.01 670.45,-240.89 663.33,-241.75 655.8,-242.59 647.89,-243.41 639.66,-244.2 631.11,-244.96 622.29,-245.69 613.22,-246.39 603.94,-247.06 594.45,-247.69 584.8,-248.29 575,-248.84 565.07,-249.35 555.03,-249.82 544.9,-250.25 534.68,-250.64 524.41,-250.97 514.07,-251.26 503.7,-251.51 493.29,-251.7 482.85,-251.85 472.4,-251.95 461.94,-252 451.48,-252 441.01,-251.95 430.56,-251.85 420.13,-251.7 409.72,-251.51 399.34,-251.26 389.01,-250.97 378.73,-250.64 368.52,-250.25 358.38,-249.82 348.34,-249.35 338.41,-248.84 328.61,-248.29 318.96,-247.69 309.48,-247.06 300.19,-246.39 291.13,-245.69 282.31,-244.96 273.76,-244.2 265.52,-243.41 257.62,-242.59 250.09,-241.75 242.96,-240.89 236.27,-240.01 230.05,-239.11 224.34,-238.2 219.17,-237.28 214.58,-236.35 210.6,-235.41 207.26,-234.47 204.59,-233.53 202.62,-232.59 201.38,-231.65 200.9,-230.72 201.19,-229.8 202.28,-228.89 204.18,-227.99 206.91,-227.11 210.46,-226.25 214.86,-225.41 220.09,-224.59 226.16,-223.8 233.05,-223.04 240.76,-222.31 249.27,-221.61 258.56,-220.94 268.6,-220.31 279.36,-219.71 290.81,-219.16 302.91,-218.65 315.62,-218.18 328.89,-217.75 342.68,-217.36 356.92,-217.03 371.57,-216.74 386.57,-216.49 401.85,-216.3 417.36,-216.15 433.04,-216.05 448.81,-216 464.61,-216 480.38,-216.05"/>
<text text-anchor="middle" x="456.71" y="-228.95" font-family="Times,serif" font-size="14.00">value: assigment, id: 14, ot: a WRITE a READ &#160;BIN_MUL 2</text>
</g>
<!-- value: if, id: 13, ot: a READ &#160;BIN_GREATER 10&#45;&gt;value: assigment, id: 14, ot: a WRITE a READ &#160;BIN_MUL 2 -->
<g id="edge8" class="edge">
<title>value: if, id: 13, ot: a READ &#160;BIN_GREATER 10&#45;&gt;value: assigment, id: 14, ot: a WRITE a READ &#160;BIN_MUL 2</title>
<path fill="none" stroke="black" d="M657.9,-288.14C619.54,-278.01 570.57,-265.08 530.54,-254.5"/>
<polygon fill="black" stroke="black" points="531.53,-251.15 520.97,-251.98 529.75,-257.91 531.53,-251.15"/>
</g>
<!-- value: assigment, id: 15, ot: a WRITE a READ &#160;BIN_MUL 3 -->
<g id="node13" class="node">
<title>value: assigment, id: 15, ot: a WRITE a READ &#160;BIN_MUL 3</title>
<polygon fill="aquamarine" stroke="black" points="1010.38,-216.05 1026.05,-216.15 1041.56,-216.3 1056.85,-216.49 1071.84,-216.74 1086.5,-217.03 1100.74,-217.36 1114.52,-217.75 1127.8,-218.18 1140.5,-218.65 1152.6,-219.16 1164.06,-219.71 1174.82,-220.31 1184.86,-220.94 1194.14,-221.61 1202.65,-222.31 1210.36,-223.04 1217.26,-223.8 1223.33,-224.59 1228.56,-225.41 1232.95,-226.25 1236.51,-227.11 1239.23,-227.99 1241.13,-228.89 1242.22,-229.8 1242.51,-230.72 1242.03,-231.65 1240.79,-232.59 1238.83,-233.53 1236.16,-234.47 1232.82,-235.41 1228.83,-236.35 1224.24,-237.28 1219.07,-238.2 1213.36,-239.11 1207.14,-240.01 1200.45,-240.89 1193.33,-241.75 1185.8,-242.59 1177.89,-243.41 1169.66,-244.2 1161.11,-244.96 1152.29,-245.69 1143.22,-246.39 1133.94,-247.06 1124.45,-247.69 1114.8,-248.29 1105,-248.84 1095.07,-249.35 1085.03,-249.82 1074.9,-250.25 1064.68,-250.64 1054.41,-250.97 1044.07,-251.26 1033.7,-251.51 1023.29,-251.7 1012.85,-251.85 1002.4,-251.95 991.94,-252 981.48,-252 971.01,-251.95 960.56,-251.85 950.13,-251.7 939.72,-251.51 929.34,-251.26 919.01,-250.97 908.73,-250.64 898.52,-250.25 888.38,-249.82 878.34,-249.35 868.41,-248.84 858.61,-248.29 848.96,-247.69 839.48,-247.06 830.19,-246.39 821.13,-245.69 812.31,-244.96 803.76,-244.2 795.52,-243.41 787.62,-242.59 780.09,-241.75 772.96,-240.89 766.27,-240.01 760.05,-239.11 754.34,-238.2 749.17,-237.28 744.58,-236.35 740.6,-235.41 737.26,-234.47 734.59,-233.53 732.62,-232.59 731.38,-231.65 730.9,-230.72 731.19,-229.8 732.28,-228.89 734.18,-227.99 736.91,-227.11 740.46,-226.25 744.86,-225.41 750.09,-224.59 756.16,-223.8 763.05,-223.04 770.76,-222.31 779.27,-221.61 788.56,-220.94 798.6,-220.31 809.36,-219.71 820.81,-219.16 832.91,-218.65 845.62,-218.18 858.89,-217.75 872.68,-217.36 886.92,-217.03 901.57,-216.74 916.57,-216.49 931.85,-216.3 947.36,-216.15 963.04,-216.05 978.81,-216 994.61,-216 1010.38,-216.05"/>
<text text-anchor="middle" x="986.71" y="-228.95" font-family="Times,serif" font-size="14.00">value: assigment, id: 15, ot: a WRITE a READ &#160;BIN_MUL 3</text>
</g>
<!-- value: if, id: 13, ot: a READ &#160;BIN_GREATER 10&#45;&gt;value: assigment, id: 15, ot: a WRITE a READ &#160;BIN_MUL 3 -->
<g id="edge14" class="edge">
<title>value: if, id: 13, ot: a READ &#160;BIN_GREATER 10&#45;&gt;value: assigment, id: 15, ot: a WRITE a READ &#160;BIN_MUL 3</title>
<path fill="none" stroke="black" d="M785.52,-288.14C823.88,-278.01 872.85,-265.08 912.87,-254.5"/>
<polygon fill="black" stroke="black" points="913.67,-257.91 922.44,-251.98 911.88,-251.15 913.67,-257.91"/>
</g>
<!-- value: if, id: 16, ot: x READ &#160;BIN_LESS 10 -->
<g id="node9" class="node">
<title>value: if, id: 16, ot: x READ &#160;BIN_LESS 10</title>
<polygon fill="aquamarine" stroke="black" points="739.13,-144.05 750.66,-144.15 762.07,-144.3 773.32,-144.49 784.35,-144.74 795.13,-145.03 805.61,-145.36 815.75,-145.75 825.52,-146.18 834.87,-146.65 843.77,-147.16 852.2,-147.71 860.12,-148.31 867.5,-148.94 874.34,-149.61 880.6,-150.31 886.27,-151.04 891.35,-151.8 895.81,-152.59 899.66,-153.41 902.89,-154.25 905.51,-155.11 907.52,-155.99 908.91,-156.89 909.71,-157.8 909.93,-158.72 909.57,-159.65 908.66,-160.59 907.22,-161.53 905.25,-162.47 902.79,-163.41 899.86,-164.35 896.48,-165.28 892.68,-166.2 888.48,-167.11 883.9,-168.01 878.98,-168.89 873.74,-169.75 868.2,-170.59 862.38,-171.41 856.32,-172.2 850.03,-172.96 843.54,-173.69 836.87,-174.39 830.04,-175.06 823.06,-175.69 815.96,-176.29 808.75,-176.84 801.44,-177.35 794.05,-177.82 786.6,-178.25 779.08,-178.64 771.52,-178.97 763.92,-179.26 756.28,-179.51 748.62,-179.7 740.95,-179.85 733.26,-179.95 725.56,-180 717.86,-180 710.16,-179.95 702.47,-179.85 694.79,-179.7 687.13,-179.51 679.5,-179.26 671.9,-178.97 664.33,-178.64 656.82,-178.25 649.36,-177.82 641.97,-177.35 634.67,-176.84 627.46,-176.29 620.35,-175.69 613.38,-175.06 606.54,-174.39 599.87,-173.69 593.38,-172.96 587.1,-172.2 581.03,-171.41 575.22,-170.59 569.68,-169.75 564.43,-168.89 559.51,-168.01 554.94,-167.11 550.73,-166.2 546.93,-165.28 543.55,-164.35 540.62,-163.41 538.16,-162.47 536.2,-161.53 534.75,-160.59 533.84,-159.65 533.49,-158.72 533.7,-157.8 534.5,-156.89 535.9,-155.99 537.9,-155.11 540.52,-154.25 543.75,-153.41 547.6,-152.59 552.07,-151.8 557.14,-151.04 562.82,-150.31 569.08,-149.61 575.91,-148.94 583.3,-148.31 591.22,-147.71 599.64,-147.16 608.55,-146.65 617.9,-146.18 627.66,-145.75 637.8,-145.36 648.28,-145.03 659.06,-144.74 670.1,-144.49 681.35,-144.3 692.76,-144.15 704.29,-144.05 715.89,-144 727.52,-144 739.13,-144.05"/>
<text text-anchor="middle" x="721.71" y="-156.95" font-family="Times,serif" font-size="14.00">value: if, id: 16, ot: x READ &#160;BIN_LESS 10</text>
</g>
<!-- value: assigment, id: 14, ot: a WRITE a READ &#160;BIN_MUL 2&#45;&gt;value: if, id: 16, ot: x READ &#160;BIN_LESS 10 -->
<g id="edge9" class="edge">
<title>value: assigment, id: 14, ot: a WRITE a READ &#160;BIN_MUL 2&#45;&gt;value: if, id: 16, ot: x READ &#160;BIN_LESS 10</title>
<path fill="none" stroke="black" d="M521.2,-215.97C560.27,-205.65 610.16,-192.47 650.4,-181.83"/>
<polygon fill="black" stroke="black" points="651.24,-185.23 660.02,-179.3 649.46,-178.47 651.24,-185.23"/>
</g>
<!-- value: assigment, id: 17, ot: x WRITE x READ &#160;BIN_MUL 2 -->
<g id="node10" class="node">
<title>value: assigment, id: 17, ot: x WRITE x READ &#160;BIN_MUL 2</title>
<polygon fill="aquamarine" stroke="black" points="474.48,-72.05 490.22,-72.15 505.8,-72.3 521.15,-72.49 536.21,-72.74 550.92,-73.03 565.23,-73.36 579.07,-73.75 592.4,-74.18 605.16,-74.65 617.31,-75.16 628.81,-75.71 639.62,-76.31 649.7,-76.94 659.03,-77.61 667.57,-78.31 675.32,-79.04 682.24,-79.8 688.34,-80.59 693.59,-81.41 698,-82.25 701.58,-83.11 704.31,-83.99 706.22,-84.89 707.31,-85.8 707.6,-86.72 707.12,-87.65 705.88,-88.59 703.9,-89.53 701.22,-90.47 697.87,-91.41 693.87,-92.35 689.25,-93.28 684.06,-94.2 678.33,-95.11 672.08,-96.01 665.37,-96.89 658.21,-97.75 650.64,-98.59 642.71,-99.41 634.43,-100.2 625.85,-100.96 617,-101.69 607.89,-102.39 598.56,-103.06 589.04,-103.69 579.35,-104.29 569.5,-104.84 559.53,-105.35 549.45,-105.82 539.27,-106.25 529.02,-106.64 518.69,-106.97 508.32,-107.26 497.9,-107.51 487.44,-107.7 476.97,-107.85 466.47,-107.95 455.96,-108 445.45,-108 434.95,-107.95 424.45,-107.85 413.97,-107.7 403.52,-107.51 393.1,-107.26 382.72,-106.97 372.4,-106.64 362.14,-106.25 351.97,-105.82 341.88,-105.35 331.91,-104.84 322.07,-104.29 312.37,-103.69 302.85,-103.06 293.53,-102.39 284.42,-101.69 275.56,-100.96 266.98,-100.2 258.71,-99.41 250.77,-98.59 243.21,-97.75 236.05,-96.89 229.33,-96.01 223.09,-95.11 217.35,-94.2 212.16,-93.28 207.55,-92.35 203.55,-91.41 200.19,-90.47 197.51,-89.53 195.54,-88.59 194.3,-87.65 193.81,-86.72 194.1,-85.8 195.2,-84.89 197.11,-83.99 199.84,-83.11 203.41,-82.25 207.83,-81.41 213.08,-80.59 219.17,-79.8 226.1,-79.04 233.84,-78.31 242.39,-77.61 251.71,-76.94 261.8,-76.31 272.6,-75.71 284.1,-75.16 296.26,-74.65 309.02,-74.18 322.35,-73.75 336.19,-73.36 350.5,-73.03 365.21,-72.74 380.27,-72.49 395.62,-72.3 411.2,-72.15 426.94,-72.05 442.77,-72 458.64,-72 474.48,-72.05"/>
<text text-anchor="middle" x="450.71" y="-84.95" font-family="Times,serif" font-size="14.00">value: assigment, id: 17, ot: x WRITE x READ &#160;BIN_MUL 2</text>
</g>
<!-- value: if, id: 16, ot: x READ &#160;BIN_LESS 10&#45;&gt;value: assigment, id: 17, ot: x WRITE x READ &#160;BIN_MUL 2 -->
<g id="edge10" class="edge">
<title>value: if, id: 16, ot: x READ &#160;BIN_LESS 10&#45;&gt;value: assigment, id: 17, ot: x WRITE x READ &#160;BIN_MUL 2</title>
<path fill="none" stroke="black" d="M657.14,-144.32C617.7,-134.14 567.1,-121.07 525.87,-110.41"/>
<polygon fill="black" stroke="black" points="526.8,-107.04 516.25,-107.93 525.05,-113.82 526.8,-107.04"/>
</g>
<!-- value: assigment, id: 18, ot: x WRITE x READ &#160;BIN_MUL 777 -->
<g id="node12" class="node">
<title>value: assigment, id: 18, ot: x WRITE x READ &#160;BIN_MUL 777</title>
<polygon fill="aquamarine" stroke="black" points="1017.39,-72.05 1033.73,-72.15 1049.9,-72.3 1065.84,-72.49 1081.47,-72.74 1096.75,-73.03 1111.6,-73.36 1125.97,-73.75 1139.81,-74.18 1153.06,-74.65 1165.67,-75.16 1177.61,-75.71 1188.83,-76.31 1199.3,-76.94 1208.98,-77.61 1217.86,-78.31 1225.89,-79.04 1233.08,-79.8 1239.41,-80.59 1244.87,-81.41 1249.45,-82.25 1253.16,-83.11 1256,-83.99 1257.98,-84.89 1259.11,-85.8 1259.42,-86.72 1258.91,-87.65 1257.62,-88.59 1255.57,-89.53 1252.79,-90.47 1249.3,-91.41 1245.15,-92.35 1240.36,-93.28 1234.97,-94.2 1229.02,-95.11 1222.54,-96.01 1215.56,-96.89 1208.13,-97.75 1200.28,-98.59 1192.04,-99.41 1183.45,-100.2 1174.54,-100.96 1165.35,-101.69 1155.89,-102.39 1146.21,-103.06 1136.32,-103.69 1126.26,-104.29 1116.04,-104.84 1105.69,-105.35 1095.22,-105.82 1084.66,-106.25 1074.01,-106.64 1063.29,-106.97 1052.52,-107.26 1041.7,-107.51 1030.85,-107.7 1019.97,-107.85 1009.07,-107.95 998.16,-108 987.25,-108 976.34,-107.95 965.45,-107.85 954.57,-107.7 943.72,-107.51 932.9,-107.26 922.13,-106.97 911.41,-106.64 900.76,-106.25 890.19,-105.82 879.73,-105.35 869.37,-104.84 859.16,-104.29 849.09,-103.69 839.21,-103.06 829.52,-102.39 820.07,-101.69 810.87,-100.96 801.96,-100.2 793.37,-99.41 785.14,-98.59 777.28,-97.75 769.85,-96.89 762.88,-96.01 756.39,-95.11 750.44,-94.2 745.05,-93.28 740.26,-92.35 736.11,-91.41 732.63,-90.47 729.84,-89.53 727.79,-88.59 726.5,-87.65 726,-86.72 726.31,-85.8 727.44,-84.89 729.42,-83.99 732.26,-83.11 735.97,-82.25 740.55,-81.41 746.01,-80.59 752.33,-79.8 759.52,-79.04 767.56,-78.31 776.43,-77.61 786.12,-76.94 796.58,-76.31 807.8,-75.71 819.74,-75.16 832.36,-74.65 845.61,-74.18 859.44,-73.75 873.82,-73.36 888.67,-73.03 903.94,-72.74 919.58,-72.49 935.52,-72.3 951.69,-72.15 968.03,-72.05 984.47,-72 1000.95,-72 1017.39,-72.05"/>
<text text-anchor="middle" x="992.71" y="-84.95" font-family="Times,serif" font-size="14.00">value: assigment, id: 18, ot: x WRITE x READ &#160;BIN_MUL 777</text>
</g>
<!-- value: if, id: 16, ot: x READ &#160;BIN_LESS 10&#45;&gt;value: assigment, id: 18, ot: x WRITE x READ &#160;BIN_MUL 777 -->
<g id="edge12" class="edge">
<title>value: if, id: 16, ot: x READ &#160;BIN_LESS 10&#45;&gt;value: assigment, id: 18, ot: x WRITE x READ &#160;BIN_MUL 777</title>
<path fill="none" stroke="black" d="M786.27,-144.32C825.71,-134.14 876.31,-121.07 917.55,-110.41"/>
<polygon fill="black" stroke="black" points="918.36,-113.82 927.17,-107.93 916.61,-107.04 918.36,-113.82"/>
</g>
<!-- value: assigment, id: 19, ot: y WRITE 7 -->
<g id="node11" class="node">
<title>value: assigment, id: 19, ot: y WRITE 7</title>
<polygon fill="aquamarine" stroke="black" points="737.51,-0.05 747.97,-0.15 758.33,-0.3 768.53,-0.49 778.55,-0.74 788.33,-1.03 797.84,-1.36 807.04,-1.75 815.9,-2.18 824.38,-2.65 832.46,-3.16 840.11,-3.71 847.29,-4.31 853.99,-4.94 860.19,-5.61 865.88,-6.31 871.02,-7.04 875.63,-7.8 879.68,-8.59 883.17,-9.41 886.11,-10.25 888.48,-11.11 890.3,-11.99 891.57,-12.89 892.29,-13.8 892.49,-14.72 892.17,-15.65 891.34,-16.59 890.03,-17.53 888.24,-18.47 886.01,-19.41 883.35,-20.35 880.29,-21.28 876.84,-22.2 873.03,-23.11 868.87,-24.01 864.41,-24.89 859.65,-25.75 854.62,-26.59 849.35,-27.41 843.85,-28.2 838.14,-28.96 832.25,-29.69 826.2,-30.39 820,-31.06 813.67,-31.69 807.23,-32.29 800.68,-32.84 794.05,-33.35 787.35,-33.82 780.58,-34.25 773.77,-34.64 766.9,-34.97 760.01,-35.26 753.08,-35.51 746.13,-35.7 739.16,-35.85 732.19,-35.95 725.2,-36 718.21,-36 711.23,-35.95 704.25,-35.85 697.29,-35.7 690.34,-35.51 683.41,-35.26 676.51,-34.97 669.65,-34.64 662.83,-34.25 656.07,-33.82 649.36,-33.35 642.73,-32.84 636.19,-32.29 629.75,-31.69 623.42,-31.06 617.22,-30.39 611.16,-29.69 605.27,-28.96 599.57,-28.2 594.07,-27.41 588.79,-26.59 583.77,-25.75 579.01,-24.89 574.54,-24.01 570.39,-23.11 566.58,-22.2 563.13,-21.28 560.06,-20.35 557.4,-19.41 555.17,-18.47 553.39,-17.53 552.08,-16.59 551.25,-15.65 550.93,-14.72 551.12,-13.8 551.85,-12.89 553.12,-11.99 554.94,-11.11 557.31,-10.25 560.24,-9.41 563.74,-8.59 567.79,-7.8 572.39,-7.04 577.54,-6.31 583.22,-5.61 589.42,-4.94 596.12,-4.31 603.31,-3.71 610.95,-3.16 619.03,-2.65 627.52,-2.18 636.38,-1.75 645.58,-1.36 655.09,-1.03 664.87,-0.74 674.88,-0.49 685.09,-0.3 695.44,-0.15 705.9,-0.05 716.43,0 726.98,0 737.51,-0.05"/>
<text text-anchor="middle" x="721.71" y="-12.95" font-family="Times,serif" font-size="14.00">value: assigment, id: 19, ot: y WRITE 7</text>
</g>
<!-- value: assigment, id: 17, ot: x WRITE x READ &#160;BIN_MUL 2&#45;&gt;value: assigment, id: 19, ot: y WRITE 7 -->
<g id="edge11" class="edge">
<title>value: assigment, id: 17, ot: x WRITE x READ &#160;BIN_MUL 2&#45;&gt;value: assigment, id: 19, ot: y WRITE 7</title>
<path fill="none" stroke="black" d="M516.66,-71.97C557.13,-61.51 608.96,-48.12 650.38,-37.42"/>
<polygon fill="black" stroke="black" points="651.22,-40.82 660.03,-34.93 649.47,-34.04 651.22,-40.82"/>
</g>
<!-- value: assigment, id: 18, ot: x WRITE x READ &#160;BIN_MUL 777&#45;&gt;value: assigment, id: 19, ot: y WRITE 7 -->
<g id="edge13" class="edge">
<title>value: assigment, id: 18, ot: x WRITE x READ &#160;BIN_MUL 777&#45;&gt;value: assigment, id: 19, ot: y WRITE 7</title>
<path fill="none" stroke="black" d="M926.76,-71.97C886.29,-61.51 834.46,-48.12 793.04,-37.42"/>
<polygon fill="black" stroke="black" points="793.94,-34.04 783.39,-34.93 792.19,-40.82 793.94,-34.04"/>
</g>
<!-- value: assigment, id: 15, ot: a WRITE a READ &#160;BIN_MUL 3&#45;&gt;value: if, id: 16, ot: x READ &#160;BIN_LESS 10 -->
<g id="edge15" class="edge">
<title>value: assigment, id: 15, ot: a WRITE a READ &#160;BIN_MUL 3&#45;&gt;value: if, id: 16, ot: x READ &#160;BIN_LESS 10</title>
<path fill="none" stroke="black" d="M922.22,-215.97C883.15,-205.65 833.25,-192.47 793.01,-181.83"/>
<polygon fill="black" stroke="black" points="793.96,-178.47 783.4,-179.3 792.17,-185.23 793.96,-178.47"/>
</g>
</g>
</svg>
